<?xml version="1.0" encoding="utf-8"?>
<!-- Generator: Adobe Illustrator 27.5.0, SVG Export Plug-In . SVG Version: 6.00 Build 0)  -->
<svg version="1.1" id="Layer_1" xmlns="http://www.w3.org/2000/svg" xmlns:xlink="http://www.w3.org/1999/xlink" x="0px" y="0px"
	 viewBox="0 0 1131.024 754.016" style="enable-background:new 0 0 1131.024 754.016;" xml:space="preserve">
<rect x="0" style="fill-rule:evenodd;clip-rule:evenodd;fill:#FFFFFF;" width="1131.024" height="754.016"/>
<g>
	<g>
		<path style="fill-rule:evenodd;clip-rule:evenodd;" d="M978.681,116.602c-7.68-4.818-15.876-8.512-24.955-12.106
			c-3.226-1.277-6.894-2.827-10.726-3.292c0-0.035,0-0.071,0-0.106c1.31-0.212,2.62-0.425,3.929-0.637
			c2.478-0.637,4.956-1.274,7.434-1.911c10.654-3.31,20.297-7.985,28.885-13.38c2.582-1.622,6.241-3.229,8.177-5.522
			c0-0.035,0-0.071,0-0.106c-2.088,1.062-4.177,2.124-6.265,3.186c-3.469,1.239-6.938,2.478-10.407,3.717
			c-12.653,3.894-28.124,4.78-44.707,4.779c-8.514-0.001-20.111,1.244-25.699-2.018c-4.519-2.638-8.466-7.27-11.681-11.257
			c-2.265-2.23-4.531-4.46-6.796-6.69c-3.435-2.772-6.341-6.161-9.876-8.92c-2.159-1.685-7.79-6.943-10.301-7.54
			c0,0.035,0,0.071,0,0.106c0.956,0.956,1.912,1.912,2.867,2.867c3.701,4.613,7.894,8.997,10.619,14.549c0,0.035,0,0.071,0,0.106
			c-1.314-0.545-2.633-2.637-3.504-3.717c-2.159-2.053-4.319-4.106-6.478-6.159c-10.289-8.2-20.667-15.69-32.92-22.088
			c-4.18-2.183-8.913-5.727-14.973-5.628c-4.759,2.736-1.133,8.507,0.637,11.894c5.485,10.492,11.697,19.839,16.035,31.858
			c0,0.142,0,0.283,0,0.425c-3.625-1.22-7.143-3.561-10.301-5.416c-11.015-6.471-20.777-13.71-29.522-22.407
			c-2.761-2.619-5.522-5.239-8.283-7.858c-0.975-0.66-3.004-1.645-4.354-0.637c-1.572,1.174-0.814,4.595-0.212,6.265
			c1.814,5.037,4.649,9.556,7.115,14.124c5.784,10.712,11.358,21.663,14.973,34.619c1.123,4.026,1.597,7.966,2.442,12.318
			c0.998,5.137,0.793,10.555,1.487,16.46c0.035,1.133,0.071,2.266,0.106,3.398c-2.655,3.15-5.31,6.301-7.964,9.451
			c-5.052,6.871-9.577,14.285-12.956,22.832c-2.529,6.399-3.563,13.034-4.779,21.026c-1.292,8.498,2.534,16.005,0.212,23.681
			c-1.518,5.019-4.617,8.329-7.434,12c-3.433,4.212-6.867,8.425-10.301,12.637c-3.185,3.716-6.372,7.434-9.557,11.15
			c-4.091,3.069-17.504,5.292-14.018,13.911c0.743,1.203,1.487,2.407,2.23,3.611c3.182,4.212,8.295,8.407,14.23,9.77
			c2.655,0.248,5.31,0.496,7.964,0.743c1.274,0.885,2.549,1.77,3.823,2.655c3.161,1.891,6.846,2.961,11.15,3.717
			c11.142,1.957,21.838-4.888,28.991-7.965c14.007-6.024,35.219-14.627,56.283-10.726c22.31,4.132,37.689,16.07,47.468,32.708
			c2.355,4.006,4.141,8.554,5.734,13.274c0.573,1.697,0.563,5.091,1.699,6.372c-0.035-0.991-0.071-1.982-0.106-2.973
			c-0.016-5.479-0.299-10.493-1.274-14.973c-3.216-14.78-9.567-24.133-20.814-30.796c-2.945-1.745-6.664-4.067-10.726-4.46
			c1.776-0.695,7.442,0.404,9.133,0.743c9.038,1.812,15.717,4.718,21.876,9.239c6.341,4.654,12.063,10.993,15.398,18.584
			c1.384,3.151,2.472,6.459,3.292,10.195c2.02,9.203-0.808,18.94-4.142,24.637c-8.992,15.364-22.845,23.816-47.681,20.92
			c1.56,1.689,8.272,2.237,11.257,2.761c13.94,2.45,29.009-0.794,39.716-4.142c30.141-9.423,52.255-28.24,65.628-54.477
			c3.769-7.394,6.43-15.153,8.389-24.531c0.483-2.312,1.204-4.822,1.168-7.54c0.071-0.035,0.142-0.071,0.212-0.106
			c1.375,1.621,1.518,7.328,2.018,9.982c2.446,12.995-2.773,26.391-7.434,33.982c-1.239,1.734-2.478,3.469-3.717,5.203
			c-0.602,0.76-1.704,1.2-2.018,2.23c0.035,0,0.071,0,0.106,0c4.335-2.532,9.536-9.226,12.637-13.274
			c13.513-17.638,25.817-49.282,17.841-80.813c-2.981-11.784-6.949-22.524-13.062-31.221c-2.018-2.619-4.036-5.239-6.053-7.858
			c-0.991-1.026-1.982-2.053-2.973-3.08c2.241,0.88,4.145,2.656,5.947,4.035c8.255,6.317,15.9,15.698,18.796,27.186
			c0.071,0.035,0.142,0.071,0.212,0.106c0.035,0,0.071,0,0.106,0C1028.04,161.333,1008.621,135.387,978.681,116.602z
			 M896.699,92.496c3.562,0.431,6.874,2.927,9.345,4.672c8.064,5.695,13.745,14.512,13.699,28.247c-0.035,0-0.071,0-0.106,0
			c-0.531-2.442-1.062-4.885-1.593-7.327c-1.683-4.809-7.488-13.803-12.531-14.761c3.029,12.617,2.078,26.35-3.398,35.787
			c-0.953,1.642-1.555,3.821-2.973,4.991c3.463-8.276,7.504-20.654,4.46-32.495c-1.275-4.959-3.1-9.22-4.991-13.593
			C898.031,96.677,896.35,94.094,896.699,92.496z M830.116,52.355c-0.961-1.778-4.918-7.901-4.46-9.982
			c2.441,0.245,4.643,2.33,6.372,3.504c5.09,3.457,9.34,7.592,14.018,11.363c4.351,3.508,8.495,7.752,12,12.106
			c2.624,3.26,5.635,6.291,8.177,9.664c8.791,11.668,16.026,24.271,21.77,39.079c5.085,13.112,7.687,35.885-5.734,41.734
			c-9.301,4.053-18.461-1.494-23.787-5.734c-8.507-6.773-12.914-16.848-15.079-30.053c-0.831-5.07,0.559-13.272,1.274-17.947
			c1.497-9.788-0.237-20.411-2.549-27.716C839.128,68.928,834.543,60.548,830.116,52.355z M839.249,189.026
			c1.38-0.071,2.761-0.142,4.142-0.212c0.319,0,0.637,0,0.956,0c0,0.035,0,0.071,0,0.106c-1.026,0.46-2.053,0.92-3.08,1.38
			c-2.296,1.157-4.61,2.509-6.584,4.035c-3.65,2.822-5.458,7.779-9.451,10.195c-3.507,2.121-10.654,1.752-15.186,2.549
			c2.398-2.409,10.204-2.992,13.487-4.991c4.417-2.691,5.496-8.686,11.575-9.876c0.071-0.106,0.142-0.212,0.212-0.319
			c-2.23,0.106-4.46,0.212-6.69,0.319c-5.757,0.976-10.204,2.283-13.168,5.947c-2.088,2.407-4.177,4.814-6.265,7.221
			c4.117-6.891,6.538-13.713,15.717-15.61C829.268,188.869,834.54,189.736,839.249,189.026z M799.532,67.966
			c-2.265-4.46-4.531-8.921-6.796-13.38c0.814,1.345,1.628,2.69,2.442,4.035c2.764,4.439,5.169,9.112,7.858,13.699
			c5.77,9.839,11.073,20.019,16.354,30.371c1.615,3.167,3.191,6.295,4.672,9.664c0.708,1.628,1.416,3.257,2.124,4.885
			c-0.41,0.659-1.119,0.897-1.593,1.487c-0.142,0-0.283,0-0.425,0c-2.298-5.03-3.945-10.113-6.584-14.655
			c-0.659-1.135-0.947-2.475-1.911-3.292c-0.035,0.035-0.071,0.071-0.106,0.106c2.5,4.605,5.281,14.07,6.053,20.071
			c-1.177,1.552-2.941,3.149-4.46,4.354c-0.843-1.159-0.63-6.69-0.956-8.495c-1.096-6.085-1.852-11.937-3.504-17.416
			C809.269,88.025,804.562,77.828,799.532,67.966z M794.86,213.451c2.867-4.547,5.582-9.639,7.327-15.186
			c1.564-4.968,1.69-10.983,3.08-16.46c0.919-3.624,2.364-7.039,4.142-9.876c3.298-5.263,8.326-9.661,13.593-12.956
			c2.265-1.31,4.531-2.62,6.796-3.929c-0.197,1.21-3.252,2.848-4.248,3.823c-3.283,3.213-6.283,6.882-8.708,10.938
			c-3.745,6.263-4.452,14.846-7.327,22.194c-2.401,6.138-5.321,11.729-9.026,16.566c-1.629,2.126-3.651,3.989-5.31,6.053
			c-1.27,1.581-2.621,3.24-4.248,4.46C792.24,217.203,793.55,215.327,794.86,213.451z M758.648,249.238
			c0.645-1.389,1.864-0.95,3.398-1.487c1.405,0.147,3.069,0.152,3.611,1.168c0.035,0.106,0.071,0.212,0.106,0.319
			C764.631,251.315,757.476,253.796,758.648,249.238z M1010.751,159.929c-1.628-1.416-3.257-2.832-4.885-4.248
			c-7.551-5.55-19.568-11.204-31.539-12.106c0,0.035,0,0.071,0,0.106c1.734,1.133,3.469,2.266,5.203,3.398
			c4.452,3.344,9.477,7.151,12.956,11.469c2.811,3.49,5.941,6.758,8.602,10.407c13.171,18.062,27.663,48.476,23.15,81.132
			c-0.035,0-0.071,0-0.106,0c-0.562-3.088-0.18-6.21-0.85-8.92c-1.829-7.407-8.652-18.14-14.655-21.026
			c-0.071-0.071-0.142-0.142-0.212-0.212c-0.071,0.035-0.142,0.071-0.212,0.106c3.666,7.74,1.924,25.732-0.106,33.77
			c-0.595,2.354-1.303,7.541-2.655,9.026c-0.035,0-0.071,0-0.106,0c1.142-4.617,0.828-11.857,0-16.566
			c-2.365-13.445-6.248-23.12-12.212-32.601c-2.288-3.637-5.341-9.122-8.602-11.681c-0.035,0.035-0.071,0.071-0.106,0.106
			c4.674,6.475,8.368,13.763,11.044,22.301c3.661,11.681,2.965,29.206-0.425,40.566c-7.329,24.559-21.608,41.817-40.035,55.221
			c-5.857,4.26-11.885,7.863-18.371,11.681c-1.762,1.037-4.084,2.649-6.265,3.08c0-0.035,0-0.071,0-0.106
			c2.836-1.256,6.794-5.376,8.708-7.752c1.841-2.286,4.008-4.346,5.734-6.796c6.737-9.565,12.186-25.535,8.071-41.628
			c-1.194-4.668-2.788-9.192-4.991-12.956c-7.038-12.025-16.558-20.325-31.221-24.743c-3.648-1.099-7.658-1.229-11.787-1.911
			c-6.729-1.112-13.154,0.714-19.433,0.743c-0.035,0.035-0.071,0.071-0.106,0.106c0.822,0.68,2.78,0.563,3.929,0.85
			c3.079,0.885,6.16,1.77,9.239,2.655c8.298,3.226,14.616,7.692,20.283,13.487c1.58,1.616,5.091,4.987,5.734,7.221
			c-0.991-0.956-1.982-1.912-2.973-2.867c-1.947-1.557-3.894-3.115-5.841-4.673c-7.659-5.334-16.567-8.551-27.717-10.513
			c-9.308-1.638-20.58-0.208-28.247,1.699c-16.972,4.22-30.339,10.903-45.026,17.203c-7.316,3.138-19.776,10.892-30.371,9.026
			c-3.988-0.702-7.015-2.293-10.407-3.292c-0.035-0.071-0.071-0.142-0.106-0.212c6.536,0.201,13.342,0.109,18.69-1.381
			c10.027-2.794,18.773-8.209,27.079-13.062c7.579-4.428,15.762-8.352,24.212-11.681c2.938-0.885,5.876-1.77,8.814-2.655
			c1.982-1.062,3.965-2.124,5.947-3.186c-0.381-0.518-3.823,0.004-4.885,0.212c-4.695,0.921-9.116,1.996-13.168,3.611
			c-7.77,3.095-15.165,6.899-22.088,10.938c-3.009,1.557-6.018,3.115-9.026,4.673c-5.444,3.182-11.232,6.12-17.841,8.071
			c-4.931,1.456-14.771,2.255-20.92,1.274c-1.989-0.317-5.246,0.273-5.734-1.487c-0.721-2.598,1.838-4.407,3.292-4.991
			c3.176-1.276,7.363-0.795,11.044-1.487c5.211-0.978,9.945-1.965,14.018-4.035c7.821-3.976,14.094-9.485,20.814-14.549
			c9.474-7.139,19.265-13.587,31.964-17.522c7.1-2.2,21.052-4.297,28.46-0.637c0.035,0,0.071,0,0.106,0
			c-0.48-1.369-3.034-2.256-4.248-2.973c-4.852-2.868-15.43-5.859-22.832-2.973c-0.071-0.071-0.142-0.142-0.212-0.212
			c4.295-6.687,10.867-11.373,17.628-15.61c8.043-5.041,16.896-9.133,27.398-11.787c4.141-0.672,8.284-1.345,12.425-2.018
			c6.201-1.07,13.68-0.496,20.389-0.425c0,0.035,0,0.071,0,0.106c-1.666,0.9-5.79,1.049-7.752,1.805
			c-7.099,2.735-13.107,6.809-16.672,13.062c0.291,0.168,4.637-0.849,5.734-1.062c4.331-0.84,11.124-1.164,15.823-0.319
			c12.397,2.23,20.604,4.836,28.991,10.832c1.884,1.347,3.427,3.141,5.203,4.566c2.226,1.786,4.726,4.378,6.159,6.903
			c-1.38-1.133-2.761-2.266-4.142-3.398c-3.187-2.26-7.107-3.958-11.257-5.203c-12.476-3.746-24.352,1.773-31.752,6.796
			c-1.628,1.105-6.253,4.132-6.903,5.841c27.141-5.676,44.446,6.938,51.291,26.336c1.874,5.31,1.899,10.151,2.973,16.566
			c0.286,1.709,0.404,4.266-0.106,5.841c0.035,0.071,0.071,0.142,0.106,0.212c0.106-0.035,0.212-0.071,0.319-0.106
			c2.72-13.297,2.697-28.613-2.124-39.61c-1.564-3.567-3.813-6.814-6.053-9.77c-0.882-1.165-2.824-2.169-3.292-3.611
			c8.662,2.795,15.449,9.696,20.283,16.46c1.129,1.579,2.655,3.191,3.398,5.097c0.106,0,0.212,0,0.319,0
			c-3.716-21.1-12.514-36.234-26.973-46.513c-4.171-2.965-10.813-7.933-17.203-8.283c-0.035-0.071-0.071-0.142-0.106-0.212
			c3.624-1.465,13.559-0.626,16.46,0.743c0.035-0.071,0.071-0.142,0.106-0.212c-1.133-1.097-2.266-2.195-3.398-3.292
			c-2.709-2.178-5.259-4.429-8.389-6.265c-8.177-4.796-22.849-6.835-35.362-4.354c-11.256,2.232-21.193,5.081-30.796,8.92
			c-4.389,1.911-8.779,3.823-13.168,5.734c1.899-1.892,5.615-2.783,8.071-4.035c6.55-3.341,13.214-6.529,20.071-9.557
			c10.166-4.491,20.507-9.545,29.947-15.079c8.413-4.932,23.398-14.69,37.911-11.469c3.589,0.797,6.194,2.345,9.026,3.611
			c0.142,0.071,0.283,0.142,0.425,0.212c0-0.035,0-0.071,0-0.106c-3.761-5.034-14.81-11.948-24.849-10.195
			c-3.308,0.578-6.002,1.841-8.814,2.442c1.619-2.582,5.571-4.524,8.177-6.159c6.766-4.245,23.992-13.086,35.362-7.858
			c0.035,0,0.071,0,0.106,0c0-0.035,0-0.071,0-0.106c-2.426-2.38-13.581-3.312-18.584-2.655
			c-11.69,1.536-19.511,6.015-27.186,11.469c-1.911,1.522-3.823,3.044-5.734,4.566c0.743-0.956,1.487-1.912,2.23-2.867
			c1.536-2.156,3.068-4.679,3.929-7.434c1.754-5.613,0.203-10.11,4.566-13.38c2.97-2.225,7.172-3.016,11.575-3.823
			c1.734-0.142,3.469-0.283,5.203-0.425c7.902,0.022,14.958,0.383,21.133,2.23c2.832,0.956,5.664,1.912,8.495,2.867
			c0.071,0.142,0.142,0.283,0.212,0.425c-5.755-1.407-10.9,1.388-16.141,1.38c0,0.035,0,0.071,0,0.106
			c1.266,1.136,4.532,1.16,6.265,1.699c3.934,1.223,7.839,2.628,11.15,4.566c10.982,6.429,21.041,14.42,28.672,24.212
			c2.241,2.876,4.77,5.74,6.478,9.133C1013.3,162.62,1012.025,161.274,1010.751,159.929z M858.151,85.063
			c3.169,7.26,5.317,15.102,8.177,22.938c0,0.142,0,0.283,0,0.425c-1.451-2.973-2.903-5.947-4.354-8.92
			c-1.487-2.407-2.974-4.814-4.46-7.221c-1.274-1.734-2.549-3.469-3.823-5.203c-0.106,0.035-0.212,0.071-0.319,0.106
			c3.728,6.75,6.237,14.007,8.708,22.301c0.743,2.584,1.487,5.168,2.23,7.752c-1.026-1.664-2.053-3.328-3.08-4.991
			c-2.088-2.832-4.177-5.664-6.265-8.495c-0.212-0.177-0.425-0.354-0.637-0.531c-0.035,0-0.071,0-0.106,0
			c0.708,1.168,1.416,2.336,2.124,3.504c1.168,2.619,2.336,5.239,3.504,7.858c2.275,5.562,2.803,11.873,4.566,18.265
			c-0.78-0.494-1.913-4.459-2.442-5.522c-1.487-2.867-2.974-5.735-4.46-8.602c-1.168-1.841-2.336-3.682-3.504-5.522
			c-0.106,0-0.212,0-0.319,0c4.724,19.59,5.532,33.159,26.336,37.38c-0.92-1.239-1.841-2.478-2.761-3.717
			c-1.724-2.758-5.196-12.363-2.867-17.203c0-0.071,0-0.142,0-0.212c1.224,0.461,2.788,2.965,3.504,4.035
			c0.106,0.035,0.212,0.071,0.319,0.106c-0.849-4.247-1.699-8.496-2.549-12.743c-1.165-5.828-1.349-11.581-2.973-16.779
			c-3.134-10.028-8.47-17.807-14.124-25.274c-1.427-1.884-7.63-9.955-9.345-10.619c0.956,1.557,1.912,3.115,2.867,4.672
			C854.116,76.921,856.134,80.992,858.151,85.063z"/>
	</g>
</g>
<g>
	<g>
		<path style="fill-rule:evenodd;clip-rule:evenodd;" d="M651.076,161.18c13.641,3.756,23.916,9.531,33.596,17.083
			c3.302,3.037,6.606,6.074,9.908,9.111c0.038,0,0.076,0,0.114,0c-0.81-3.62-6.016-9.835-8.2-12.641
			c-9.37-12.039-22.466-19.491-37.923-25.51c-4.205-1.638-8.87-2.498-13.438-3.644c-1.936-0.38-3.872-0.759-5.808-1.139
			c1.67,0,3.341,0,5.011,0c4.313,0.001,8.5,0.055,12.299-0.683c6.03-1.172,11.45-2.24,16.513-4.328
			c2.885-1.442,5.77-2.885,8.655-4.328c0.038-0.076,0.076-0.152,0.114-0.228c0-0.038,0-0.076,0-0.114
			c-3.977,0.531-8.44,1.222-12.869,1.936c-6.814,1.098-14.716-1.338-19.133-3.075c-14.961-5.884-23.37-17.553-35.304-26.307
			c-3.76-2.758-7.793-5.582-12.299-7.516c-3.205-1.376-7.037-1.667-8.883-4.441c-7.83-11.765-14.771-24.29-22.891-35.76
			c-3.579-5.056-6.428-10.631-15.147-10.591c-1.653,0.729-3.268,0.848-4.669,1.708c-6.742,4.138-10.041,13.572-14.122,20.385
			c-3.188,5.314-6.378,10.63-9.566,15.944c-2.277,3.188-4.556,6.378-6.833,9.566c-1.79-0.197-3.32-2.112-4.669-2.961
			c-2.391-1.404-4.783-2.809-7.175-4.214c-6.187-2.923-12.376-5.846-18.563-8.769c-4.891-2.874-9.008-6.32-13.324-9.68
			c-2.443-1.902-11.092-9.735-15.488-6.378c-1.329,1.015-1.699,3.983-1.253,6.378c0.923,4.949,2.433,9.144,4.214,13.324
			c2.432,5.709,4.714,11.453,6.605,17.88c0.607,3.492,1.215,6.985,1.822,10.477c1.328,5.951,2.832,11.47,4.897,16.741
			c1.404,3.682,2.809,7.365,4.214,11.047c0.397,0.964,1.822,2.982,1.481,4.328c-1.594,2.999-3.189,5.998-4.783,8.997
			c-3.22,7.342-6.761,14.664-8.427,23.46c-1.752,9.245,6.623,16.03,1.481,24.713c-2.375,4.01-5.948,6.854-8.769,10.363
			c-2.027,2.522-4.425,5.033-6.947,7.061c-1.328,1.367-2.657,2.733-3.986,4.1c-4.745,4.289-9.491,8.58-14.235,12.869
			c-3.814,3.027-13.768,5.458-8.769,13.894c2.138,3.609,6.286,5.156,9.566,7.63c3.938,2.97,6.727,6.811,11.274,9.339
			c4.616,2.565,9.937,2.808,16.285,3.872c2.686,0.45,5.993-0.147,8.2-0.569c3.883-0.743,7.122-1.326,10.363-2.619
			c6.813-2.718,15.473-8.14,25.624-5.58c2.347,0.592,4.552,1.453,6.491,2.505c2.36,1.281,4.799,3.38,6.378,5.466
			c1.698,2.245,3.285,5.034,4.214,7.972c5.892,18.647-8.727,32.38-18.107,39.859c-2.725,2.173-5.292,4.568-8.086,6.719
			c-0.91,0.701-1.582,1.699-2.733,2.164c-0.076,0.152-0.152,0.304-0.228,0.456c3.226-1.063,6.454-2.126,9.68-3.189
			c12.114-4.702,22.816-9.589,31.887-17.196c0.038,0,0.076,0,0.114,0c-0.275,1.734-1.494,3.23-2.278,4.555
			c-5.177,8.753-12.882,13.986-21.41,19.36c-17.397,10.963-34.543,24.069-46.806,40.201c0.076,0.076,0.152,0.152,0.228,0.228
			c2.949-3.72,9.365-6.262,13.666-8.769c12.206-7.114,27.513-9.143,44.301-11.958c5.732-0.38,11.465-0.759,17.196-1.139
			c1.708-0.038,3.417-0.076,5.125-0.114c3.112-0.228,6.226-0.456,9.338-0.683c5.883-1.015,11.338-1.796,16.513-3.417
			c14.364-4.497,26.433-11.7,37.354-19.702c3.606-2.923,7.213-5.846,10.819-8.769c1.301-1.048,2.546-3.347,4.214-3.872
			c0,0.038,0,0.076,0,0.114c-7.71,15.85-19.274,27.898-32.685,38.037c-3.94,2.978-9.95,8.385-14.919,9.908c0,0.114,0,0.228,0,0.342
			c3.037-1.215,6.074-2.43,9.111-3.644c9.286-3.683,17.942-7.647,25.966-12.527c25.593-15.566,48.946-34.786,61.156-63.661
			c5.306-12.548,8.051-30.811,3.986-47.034c-1.8-7.184-4.228-13.595-7.175-19.474c0.038-0.076,0.076-0.152,0.114-0.228
			c2.488,0.591,6.245,4.651,7.972,6.377c6.238,6.239,10.506,14.614,13.552,24.029c0.721,2.771,1.443,5.543,2.164,8.314
			c0.304,1.556,0.607,3.113,0.911,4.669c0.076,0.114,0.152,0.228,0.228,0.342c0.038-2.733,0.076-5.467,0.114-8.2
			c-0.114-2.391-0.228-4.783-0.342-7.175c-0.907-5.487-1.151-11.131-2.278-16.172c-4.683-20.96-10.801-32.429-22.093-46.465
			c-4.55-5.655-11.151-10.175-16.855-14.691c-2.126-2.05-4.252-4.1-6.378-6.15c0-0.152,0-0.304,0-0.456
			C644.021,159.29,647.889,160.302,651.076,161.18z M465.445,92.622c-2.505-5.048-5.011-10.098-7.516-15.147
			c3.362,1.951,6.93,7.675,9.225,10.933c7.423,10.537,12.62,21.871,12.299,40.315c-1.292-0.517-4.607-10.46-5.353-12.527
			C471.199,108.157,468.714,100.021,465.445,92.622z M605.75,283.377c-1.343,1.774-7.712,9.83-9.338,10.363
			c1.446-4.337,3.071-8.969,4.214-13.894c0.304-2.505,0.607-5.011,0.911-7.516c0.404-2.516,0.658-5.877,0.228-8.655
			c-0.588-3.8-1.452-7.424-1.822-10.933c-0.152,0-0.304,0-0.456,0c-1.128,6.066-6.26,14.36-9.225,19.133
			c-7.896,12.712-17.392,24.746-28.813,33.937c-4.198,3.379-8.13,7.862-12.869,10.591c-0.038,0-0.076,0-0.114,0
			c1.594-2.05,3.189-4.1,4.783-6.15c2.214-3.039,4.16-6.62,5.694-10.25c1.875-4.437,4.174-13.108,3.075-19.702
			c-0.38-3.226-0.759-6.454-1.139-9.68c-0.076-0.038-0.152-0.076-0.228-0.114c-0.342,2.05-0.683,4.1-1.025,6.15
			c-0.633,2.85-1.526,5.702-2.619,8.2c-4.31,9.846-13.304,15.127-22.891,19.702c-0.038,0-0.076,0-0.114,0
			c1.063-2.923,2.126-5.846,3.189-8.769c1.973-6.302,2.85-13.273,2.733-21.638c-1.437,0.503-2.556,3.685-3.417,4.897
			c-2.164,2.543-4.328,5.087-6.491,7.63c-1.329,1.291-2.657,2.581-3.986,3.872c-0.114,0.038-0.228,0.076-0.342,0.114
			c0.261-2.66,1.125-5.474,1.594-8.427c1.674-10.535-5.774-20.413-12.527-22.549c-0.076-0.114-0.152-0.228-0.228-0.342
			c0-0.038,0-0.076,0-0.114c9.278,0.826,12.866,4.14,17.083,9.794c0.152,0,0.304,0,0.456,0c1.6-4.172,3.106-7.667,6.719-9.794
			c7.113-4.188,18.848-0.701,24.029,2.278c0.304-3.449-8.008-9.535-10.591-11.274c-9.516-6.408-25.117-11.197-41.34-7.63
			c-3.986,0.949-7.972,1.898-11.958,2.847c-2.961,1.139-5.922,2.278-8.883,3.417c-0.038,0-0.076,0-0.114,0
			c0.38-0.911,0.759-1.822,1.139-2.733c1.407-3.246,3.435-5.898,5.466-8.541c0.987-1.177,1.974-2.354,2.961-3.53
			c0.342-0.342,0.683-0.683,1.025-1.025c-0.076-0.038-0.152-0.076-0.228-0.114c-7.339,4.719-11.673,12.633-18.335,17.994
			c-5.9,4.748-11.572,8.558-19.588,11.388c-9.977,3.523-21.453,2.732-28.129-3.417c0-0.038,0-0.076,0-0.114
			c4.219-3.585,7.711-6.167,9.225-12.527c1.336-5.613-8.043-9.283-13.438-7.516c-0.076-0.076-0.152-0.152-0.228-0.228
			c6.756-6.035,13.515-12.072,20.271-18.108c5.801-4.655,13.544-11.737,16.627-18.905c1.937-4.503,1.465-11.438,0-16.058
			c-0.902-2.844-2.604-6.46-1.594-10.477c2.552-10.154,7.326-19.876,12.299-28.015c2.353-3.644,4.707-7.289,7.061-10.933
			c0.19-0.152,0.38-0.304,0.569-0.456c0.038,0,0.076,0,0.114,0c-0.572,3.486-1.916,7.237-2.05,11.502c0.038,0,0.076,0,0.114,0
			c1.516-1.251,2.161-4.203,3.189-5.922c2.733-4.441,5.467-8.883,8.2-13.324c9.994-15.017,20.982-29.142,30.407-44.87
			c4.997-8.339,10.481-21.447,18.449-26.421c7.296-0.057,11.483,10.138,14.349,15.033c5.439,9.287,10.732,18.154,14.122,29.496
			c1.301,4.352,2.587,11.046,1.594,16.969c-0.683,3.872-1.367,7.745-2.05,11.616c-1.648,7.674,1.673,21.406-5.011,24.143
			c-1.504,0.616-3.4,0.259-4.555-0.342c-5.895-3.066-4.59-9.257-5.808-16.969c-1.037-6.566-2.725-11.053-3.758-17.424
			c-0.452-2.786,0.142-5.98,0.569-8.2c1.196-6.205,2.528-11.747,2.505-18.905c0.038,0,0.076,0,0.114,0
			c3.249,2.976,4.054,15.68,2.961,21.866c-0.414,2.343-1.396,7.492-0.228,9.908c0.076,0.114,0.152,0.228,0.228,0.342
			c0.038,0,0.076,0,0.114,0c0.797-2.581,1.594-5.163,2.392-7.744c1.851-4.272,4.504-7.773,5.466-12.983
			c0.774-4.191-2.664-9.22-4.1-11.616c-3.135-5.231-6.409-10.061-9.566-15.374c-1.504-2.531-3.324-5.521-3.758-8.997
			c-0.076-0.038-0.152-0.076-0.228-0.114c-0.076,1.632-0.152,3.265-0.228,4.897c0,3.854,0.162,7.661-0.456,11.047
			c-1.994,10.938-4.943,19.955-10.477,27.218c-1.409,1.85-6.988,8.662-10.705,6.833c-3.729-1.742-1.586-10.973-0.569-14.235
			c1.731-5.559,4.515-10.356,6.719-15.374c1.404-3.378,2.809-6.757,4.214-10.136c1.339-3.134,3.209-6.948,3.758-10.591
			c-0.038,0-0.076,0-0.114,0c-2.543,5.162-5.087,10.326-7.63,15.488c-6.694,11.471-12.519,23.573-20.044,34.165
			c-3.644,4.745-7.289,9.491-10.933,14.235c-1.256,1.64-4.484,4.669-5.011,6.605c1.329-0.949,2.657-1.898,3.986-2.847
			c2.277-1.404,4.556-2.809,6.833-4.214c6.219-3.696,13.161-6.26,20.385-8.997c0.038,0.038,0.076,0.076,0.114,0.114
			c-0.911,0.569-1.822,1.139-2.733,1.708c-1.784,1.328-3.569,2.657-5.353,3.986c-5.648,4.47-10.526,10.071-15.602,15.147
			c-1.478,1.478-6.965,6.531-7.516,8.2c1.594-0.987,3.189-1.974,4.783-2.961c3.644-1.746,7.289-3.493,10.933-5.239
			c7.513-3.094,15.538-5.18,24.371-7.061c3.34-0.342,6.682-0.683,10.022-1.025c-0.493,0.771-8.76,4.134-10.25,5.011
			c-6.757,3.98-13.744,8.634-18.563,14.577c-1.643,2.027-4.731,4.071-5.58,6.719c1.376-0.348,2.869-1.117,4.441-1.481
			c9.54-2.203,23.424-1.954,32.571,0.342c-3.758,0.607-7.517,1.215-11.274,1.822c-0.038,0.076-0.076,0.152-0.114,0.228
			c1.45,1.779,7.695,4.558,10.022,5.922c8.213,4.813,17.002,7.755,28.015,10.022c3.349,0.689,8.664,1.792,12.527,1.025
			c-0.634,1.27-4.043,1.43-5.58,1.822c-5.572,1.419-13.261,2.153-19.93,1.253c0,0.038,0,0.076,0,0.114
			c4.107,5.076,10.762,10.309,19.93,10.136c0.038,0.038,0.076,0.076,0.114,0.114c-3.343,3.22-19.69,0.744-25.852,1.822
			c-10.175,1.78-19.126,3.797-27.332,7.402c-2.202,1.253-4.404,2.506-6.605,3.758c-0.911,0.797-1.822,1.594-2.733,2.392
			c0,0.114,0,0.228,0,0.342c2.353-0.911,4.707-1.822,7.061-2.733c3.517-1.354,7.593-1.865,11.616-2.619
			c5.365-1.006,14.282-1.625,20.157-0.683c4.944,0.792,9.406,0.501,13.78,1.594c16.363,4.088,30.257,10.724,38.721,22.663
			c2.461,3.472,4.451,7.539,5.808,12.072C624.268,257.068,613.525,273.106,605.75,283.377z M543.342,230.421
			c-2.505-0.531-5.011-1.063-7.516-1.594c-1.632-0.152-3.265-0.304-4.897-0.456c-0.076,0.076-0.152,0.152-0.228,0.228
			c3.568,1.822,7.137,3.644,10.705,5.466c6.095,3.82,11.805,8.786,16.172,14.349c4.068,5.184,8.209,10.473,10.819,17.083
			c0.835,2.847,1.67,5.694,2.505,8.541c0.323,1.28,0.083,3.384,0.797,4.328c0.834-1.045,0.415-3.313,0.683-4.897
			c0.906-5.349,0.258-12.186-1.025-16.513C567.285,243.217,556.827,234.65,543.342,230.421z M588.098,217.211
			c-2.861-1.678-6.767-3.917-10.363-4.555c0.683,2.102,10.217,8.121,12.299,10.705c2.094,2.598,4.492,5.061,5.922,8.314
			c0.949,2.657,1.898,5.315,2.847,7.972c0.076-0.038,0.152-0.076,0.228-0.114c0.466-2.112,1.013-3.974,2.05-5.466
			c3.142,0.338,7.855,9.299,7.972,13.211c0.076,0.038,0.152,0.076,0.228,0.114c0.564-0.717,0.458-2.023,0.683-3.075
			c0.889-4.148,0.298-8.56-1.481-11.274C603.837,225.949,595.52,221.564,588.098,217.211z M547.442,191.701
			c2.543,0.531,5.087,1.063,7.63,1.594c0-0.038,0-0.076,0-0.114c-6.935-9.364-26.097-13.355-43.162-13.097
			c-2.088,0.19-4.176,0.38-6.264,0.569c-4.763,0.888-9.725,1.639-13.324,3.758c-7.525,4.43-12.396,14.816-17.652,21.752
			c-6.121,8.077-14.403,14.145-20.727,21.98c-2.681,3.321-5.893,6.044-7.858,10.136c0,0.114,0,0.228,0,0.342
			c2.966-0.48,7.078-4.382,9.338-6.036c5.047-3.692,10.172-6.879,15.716-10.136c2.144-1.26,4.646-2.781,7.289-3.417
			c1.163-2.724,3.615-4.781,6.036-6.605c4.903-3.694,10.342-6.201,17.31-7.972c4.289-0.873,8.58-1.746,12.869-2.619
			c1.986-0.616,3.404-2.064,5.011-3.075c2.695-1.442,5.391-2.885,8.086-4.328C532.601,192.37,540.349,190.446,547.442,191.701z
			 M491.98,196.484c-0.228,0-0.456,0-0.683,0c2.164-2.505,4.328-5.011,6.491-7.516c0.47,0.568-0.04,3.42,0.228,4.555
			c0.342,0.949,0.683,1.898,1.025,2.847C496.688,196.408,494.333,196.446,491.98,196.484z M518.515,189.765
			c-3.834,2.242-8.293,3.836-12.755,5.466c-0.28-0.765,0.396-2.418,0.114-3.872c-0.418-1.291-0.835-2.581-1.253-3.872
			c5.845,0,11.693,0,17.538,0C521.711,188.683,519.581,189.141,518.515,189.765z"/>
	</g>
</g>
<g>
	<g>
		<path style="fill-rule:evenodd;clip-rule:evenodd;" d="M163.944,566.337c-1.653-0.033-3.307-0.066-4.96-0.099
			c-2.137,0.883-4.724,0.683-6.745,1.389c-2.429,0.848-4.302,2.477-6.547,3.174c0,0.099,0,0.198,0,0.298
			c13.79-1.787,25.151,7.603,28.071,17.656c0.066,0.033,0.132,0.066,0.198,0.099c0.033,0,0.066,0,0.099,0
			c-0.5-6.5-3.806-12.477-6.547-17.061C166.439,569.993,165.56,567.597,163.944,566.337z M368.474,574.371
			c-4.564,1.189-11.812,1.207-16.664,0.198c-7.947-1.652-14.826-3.496-21.425-6.348c-4.695-2.248-9.391-4.497-14.085-6.745
			c0-0.132,0-0.265,0-0.397c3.518-1.069,6.974-2.428,11.109-3.174c10.108-1.824,20.129,2.724,26.583,5.654
			c0.033-0.033,0.066-0.066,0.099-0.099c-1.723-6.647-10.413-15.198-15.771-18.549c-2.261-1.414-4.769-2.733-7.34-3.769
			c-1.062-0.428-3.152-0.425-3.472-1.587c1.263-1.215,4.616-1.02,6.646-1.389c5.209-0.946,12.971-1.222,18.152,0
			c2.195,0.518,4.211,1.635,6.15,2.083c0-0.033,0-0.066,0-0.099c-5.237-9.694-20.218-13.835-34.022-15.375
			c-0.066-0.066-0.132-0.132-0.198-0.198c0.76-3.969,2.173-8.136,3.075-12.3c1.064-4.913,1.262-10.15,2.083-15.374
			c0.645-4.103,0.397-8.466,0.397-12.895c-0.002-19.802-3.981-35.953-10.018-49.694c-2.215-5.042-5.764-11.996-9.621-15.374
			c-0.099,0-0.198,0-0.298,0c-1.691,3.359-4.054,6.008-6.249,8.828c-8.65,11.112-20.342,19.822-32.733,27.178
			c-5.627,3.341-11.831,5.675-17.557,9.026c-4.033,2.215-8.068,4.431-12.101,6.646c-1.851,1.223-3.703,2.447-5.555,3.67
			c-0.066-0.066-0.132-0.132-0.198-0.198c2.235-4.518,8.526-8.938,12.597-11.804c1.167-0.822,6.047-3.318,6.447-4.364
			c-14.149,1.241-23.394,4.309-33.824,8.828c-3.075,1.455-6.15,2.91-9.225,4.364c-4.463,2.546-8.928,5.092-13.391,7.638
			c-1.455,0.959-2.91,1.918-4.364,2.877c-1.653-1.058-3.307-2.116-4.96-3.174c-4.364-2.9-8.489-5.932-12.597-9.026
			c-8.347-6.286-15.896-13.318-23.211-20.632c-3.708-3.708-7.637-7.384-10.911-11.506c-2.951-3.716-5.622-7.676-8.63-11.407
			c-1.599,0.402-3.124,2.5-4.067,3.67c-3.751,4.656-6.391,9.285-8.828,15.474c-7.674,19.485-10.096,50.365-4.166,73.698
			c1.146,4.511,2.075,9.011,3.868,12.895c-1.752,0.992-3.505,1.984-5.257,2.976c-4.317,2.72-8.677,6.477-11.804,10.415
			c-2.948,3.713-5.667,7.587-8.134,11.804c-1.157,2.513-2.315,5.026-3.472,7.539c0,0.033,0,0.066,0,0.099
			c0.962,0.059,4.653-2.148,5.951-2.678c5.158-2.106,12.731-4.278,20.136-3.075c1.223,0.132,2.447,0.265,3.67,0.397
			c0.648,0.579-0.723,2.444-1.091,3.075c-1.825,3.124-3.667,5.514-6.249,7.836c-7.186,6.462-27.78,12.578-38.982,5.456
			c-0.033,0-0.066,0-0.099,0c0.583,1.856,8.037,6.49,10.018,7.737c7.8,4.908,16.859,8.446,26.385,11.704
			c4.331,1.256,8.663,2.513,12.994,3.769c0.099,0.066,0.198,0.132,0.298,0.198c0,0.066,0,0.132,0,0.198
			c-2.446,0.562-4.894,1.124-7.34,1.686c-4.822,1.453-9.428,3.034-13.787,4.959c-3.656,1.615-7.366,3.63-10.514,5.852
			c-1.554,1.19-3.108,2.381-4.662,3.571c0,0.099,0,0.198,0,0.298c10.002-1.264,20.02-1.328,29.162,0.992
			c1.9,0.482,5.859,1.029,7.142,2.083c-3.008,1.587-6.018,3.174-9.026,4.761c-7.212,4.496-13.989,9.998-19.045,16.664
			c-0.959,1.223-1.918,2.447-2.877,3.67c-0.231,0.265-0.463,0.529-0.694,0.794c2.149-1.124,4.298-2.248,6.447-3.372
			c4.226-1.831,8.838-3.164,13.688-4.364c9.301-2.301,22.232-1.771,30.749,0.794c3.069,0.924,6.024,2.039,8.828,3.273
			c1.124,0.595,2.248,1.19,3.372,1.785c0.132,0.165,0.265,0.331,0.397,0.496c-2.083,0.298-4.166,0.595-6.249,0.893
			c-4.051,1.025-7.732,2.45-11.01,4.166c-1.343,0.703-4.159,1.81-4.662,3.273c6.939,0.175,13.219,2.842,18.449,5.059
			c16.989,7.201,28.746,19.86,36.105,36.601c1.924,4.377,3.351,9.552,5.852,13.49c3.591,5.654,9.384,9.708,15.077,13.292
			c3.239,2.039,8.492,6.273,14.482,5.158c9.009-1.676,22.197-12.49,26.186-19.441c1.025-2.678,2.05-5.357,3.075-8.034
			c1.784-4.524,3.537-9.047,5.455-13.391c7.376-16.699,20.155-29.707,37.395-36.601c5.881-2.352,13.004-4.943,21.128-4.761
			c0.033-0.066,0.066-0.132,0.099-0.198c-16.564-3.223-30.471,1.521-42.156,6.051c-0.033,0-0.066,0-0.099,0
			c1.126-2.337,10.188-7.442,12.895-9.026c7.15-4.184,15.157-7.051,24.698-8.927c18.38-3.614,39.749,1.659,51.48,8.134
			c0.066-0.066,0.132-0.132,0.198-0.198c-3.537-2.953-5.694-7.499-9.324-10.415c-4.781-3.842-9.558-7.291-15.077-10.514
			c-5.026-2.935-11.129-4.738-17.16-6.547c-2.843-0.661-5.687-1.323-8.53-1.984c1.053-1.184,6.445-3.379,8.233-4.166
			c8.585-3.78,21.118-7.853,33.923-5.158c2.606,0.548,5.239,1.166,7.538,2.083c0.86,0.43,1.719,0.86,2.579,1.289
			c-0.413-1.567-3.042-2.976-4.265-3.868c-3.86-2.816-8.263-4.47-13.787-5.753c-3.24-0.364-6.481-0.727-9.721-1.091
			c-0.066,0-0.132,0-0.198,0c0.312-0.75,8.729-3.216,10.117-3.769c6.053-2.412,11.874-5.466,16.862-9.026
			c1.554-1.256,3.108-2.513,4.662-3.769c0.827-0.793,1.653-1.587,2.48-2.381c0.298-0.331,0.595-0.661,0.893-0.992
			C374.013,572.478,369.483,574.108,368.474,574.371z M234.072,715.618c-2.222,1.616-6.841,5.246-9.82,5.654
			c-0.033,0-0.066,0-0.099,0c-0.407-1.485-0.35-5.234,0.198-6.547c0.9-1.415,3.516-1.683,4.563-3.075
			c2.089-2.779,2.506-6.112,5.356-8.134c2.513-1.783,7.981-4.597,7.241-9.324c-1.019-6.508-6.397-5.846-12.994-6.844
			c-2.445-0.37-5.925-0.464-8.431-0.099c-4.86,0.708-9.676-0.204-13.093,1.785c-2.207,1.285-4.354,4.712-2.877,8.332
			c1.372,3.362,5.06,4.852,7.737,6.943c4.493,3.51,1.994,8.199,9.721,10.117c0.755,1.565,0.53,4.985,0.496,7.042
			c-0.033,0.033-0.066,0.066-0.099,0.099c-3.993-0.556-7.764-3.747-10.613-5.753c-9.594-6.754-19.47-17.204-15.672-35.213
			c2.579-12.331,5.158-24.667,7.737-36.998c0.661-4.926,1.323-9.853,1.984-14.779c1.581-8.887,2.427-21.792,0-30.253
			c-3.569-12.441-11.36-20.448-20.83-26.98c-0.033,0.066-0.066,0.132-0.099,0.198c7.756,5.783,12.764,14.966,15.672,25.591
			c0.904,3.305,0.765,6.585,1.389,10.316c0.456,2.727,0.676,14.537-0.198,16.664c0,0.066,0,0.132,0,0.198c-0.033,0-0.066,0-0.099,0
			c-0.837-0.76-2.414-9.121-2.976-10.911c-1.61-5.126-3.508-10.342-6.051-14.68c-1.289-2.05-2.579-4.1-3.868-6.15
			c-0.099-0.066-0.198-0.132-0.298-0.198c-0.066,0.033-0.132,0.066-0.198,0.099c2.869,5.276,5.185,14.783,5.158,22.615
			c-0.033,0-0.066,0-0.099,0c-2.215-2.876-4.431-5.753-6.646-8.63c-4.901-6.295-10.968-12.269-17.854-16.565
			c-4.992-3.114-10.699-5.302-17.358-6.745c-2.711-0.588-5.935-0.091-8.828-0.794c-0.132,0-0.265,0-0.397,0
			c0.461,0.827,2.646,1.021,3.571,1.389c2.37,0.943,4.672,2.173,6.646,3.571c2.375,1.683,4.842,3.79,6.646,6.051
			c0.926,1.157,1.852,2.315,2.777,3.472c1.554,0.727,3.108,1.455,4.662,2.182c2.829,1.657,5.528,3.468,8.034,5.455
			c1.759,1.395,0.999,4.538,1.488,7.241c0.565,3.124,1.377,5.683,2.976,7.737c2.245,2.885,6.859,4.416,11.903,3.868
			c1.545,3.431,3.819,6.08,4.761,9.82c1.405,5.576,0.082,12.402-0.992,17.358c-0.827,4.728-1.653,9.457-2.48,14.184
			c-0.628,5.951-1.256,11.903-1.885,17.854c-0.066,0.099-0.132,0.198-0.198,0.298c-1.64-1.441-3.351-10.011-3.968-12.994
			c-0.165-1.355-0.331-2.711-0.496-4.067c0-0.066,0-0.132,0-0.198c-1.528,0.112-2.942,1.857-4.662,1.19
			c-2.232-0.865-5.56-5.33-7.836-6.943c-5.5-3.9-12.438-6.353-17.854-10.316c0-0.132,0-0.265,0-0.397
			c1.574-0.689,4.944-0.161,6.547,0.099c3.798,0.615,7.029,0.885,10.316,1.885c2.149,0.86,4.298,1.719,6.447,2.579
			c-0.707-2.801-8.048-9.071-10.415-10.911c-10.815-8.407-27.171-16.797-47.314-12.3c-5.069,1.132-9.735,2.593-13.887,4.563
			c-0.099,0-0.198,0-0.298,0c0.564-1.734,5.955-4.75,7.638-5.852c7.397-4.843,19.658-10.758,31.84-10.514
			c-0.474-1.019-4.775-2.619-6.051-3.174c-5.839-2.541-15.999-5.919-24.103-5.753c0.628-1.319,8.627-2.534,10.812-2.976
			c10.491-2.122,21.948,0.336,29.261,3.571c1.785,1.025,3.571,2.05,5.356,3.075c0.793,0.661,1.587,1.323,2.381,1.984
			c0.231,0.231,0.463,0.463,0.694,0.694c0.033,0,0.066,0,0.099,0c-0.526-1.87-6.125-7.529-7.737-8.828
			c-2.39-1.927-4.544-4.202-7.142-5.951c-6.985-4.704-15.253-7.461-24.5-10.018c-6.389-1.767-12.726-3.081-18.449-5.356
			c-1.356-0.539-4.442-1.053-4.959-2.381c2.266-1.258,5.932-1.322,8.53-1.984c4.813-1.226,8.868-2.717,12.2-5.356
			c6.179-4.895,8.693-15.869,16.962-18.549c0-0.132,0-0.265,0-0.397c-2.182-0.86-4.365-1.719-6.547-2.579
			c-5.895-1.857-12.584-2.994-20.334-2.877c0-0.033,0-0.066,0-0.099c1.384-1.368,13.072-5.101,15.87-5.455
			c-0.433-0.918-3.003-0.791-4.166-0.992c-4.622-0.798-9.956,0.05-13.787,0.794c0.504-1.445,3.226-2.651,4.464-3.472
			c4.884-3.238,16.637-6.904,24.698-3.67c0.033,0,0.066,0,0.099,0c-0.469-1.374-5.131-3.443-6.447-4.464
			c-2.349-1.821-3.69-5.581-4.86-8.53c-6.434-16.219-11.301-44.309-6.249-65.862c1.774-7.569,3.556-14.845,7.043-20.731
			c1.058-1.521,2.116-3.042,3.174-4.563c0.066,0,0.132,0,0.198,0c1.157,2.446,2.315,4.894,3.472,7.34
			c2.714,4.639,5.516,9.138,8.63,13.391c10.288,14.053,22.267,25.578,29.757,42.652c1.849,4.214,4.484,9.148,5.356,13.986
			c-0.995,1.138-10.786,5.137-12.994,5.356c0.426,0.865,3.561,1.077,4.563,1.389c3.57,1.256,7.142,2.513,10.713,3.769
			c10.475,4.55,18.283,10.287,22.814,20.83c0.862,2.007,1.926,4.282,2.182,6.844c0.099,0,0.198,0,0.298,0
			c-1.311-16.282-6.71-30.033-13.589-41.065c-2.083-2.975-4.166-5.952-6.249-8.927c-1.051-1.336-3.247-2.767-3.769-4.464
			c1.653,1.289,3.307,2.579,4.96,3.868c4.634,3.555,9.179,7.54,12.696,12.2c1.322,1.917,2.645,3.836,3.968,5.753
			c0.733,1.238,1.206,3.18,2.381,3.968c0.982-1.286,1.027-3.574,1.488-5.356c0.992-3.273,1.984-6.547,2.976-9.82
			c1.935-4.866,4.256-9.523,7.142-13.49c1.289-1.554,2.579-3.108,3.868-4.662c0.099-0.033,0.198-0.066,0.298-0.099
			c-0.694,1.289-1.389,2.579-2.083,3.868c-1.201,2.746-2.1,5.79-2.777,9.026c-1.952,9.333,0.978,18.64,2.777,25.889
			c0.066,0.033,0.132,0.066,0.198,0.099c0.066-0.066,0.132-0.132,0.198-0.198c-0.382-1.524,0.052-3.493,0.298-4.761
			c0.661-3.418,1.101-6.218,2.281-9.026c0.694-1.289,1.389-2.579,2.083-3.868c0.165-0.132,0.331-0.265,0.496-0.397
			c0.033,0,0.066,0,0.099,0c-0.25,3.711-1.461,7.839-0.397,12.002c0.099,0,0.198,0,0.298,0c0.904-0.867,1.004-3.02,1.488-4.265
			c1.069-2.75,2.293-5.516,3.769-7.935c5.607-9.191,14.523-20.157,24.004-25.294c0.033,0,0.066,0,0.099,0
			c-0.398,1.409-2.138,2.562-2.976,3.67c-2.05,3.008-4.1,6.018-6.15,9.026c-5.771,9.449-9.516,20.069-12.696,32.237
			c-1.192,4.558-2.841,10.238-2.777,15.573c0.397-1.355,0.794-2.711,1.19-4.067c1.127-3.257,2.539-6.764,4.464-9.324
			c1.575-2.095,4.396-3.636,6.646-5.059c5.199-3.287,10.68-5.969,16.763-8.53c2.182-0.826,4.365-1.653,6.547-2.48
			c-0.295-0.689-6.733-3.564-7.836-4.067c-0.397-2.247,1.215-5.328,1.885-7.241c2.223-6.347,4.31-12.317,7.439-17.656
			c2.983-5.09,5.927-9.697,9.423-14.184c6.149-7.009,12.3-14.02,18.449-21.028c5.032-6.472,9.269-13.378,13.49-20.731
			c0.474,0.566-0.191,2.573-0.397,3.372c-0.818,3.177-1.743,6.466-2.678,9.423c-2.899,9.173-7.167,16.201-12.399,22.913
			c-2.876,3.273-5.753,6.547-8.63,9.82c0.033,0,0.066,0,0.099,0c1.818-1.157,3.637-2.315,5.456-3.472
			c0.893-0.694,1.785-1.389,2.678-2.083c0.099-0.099,0.198-0.198,0.298-0.298c0.033,0,0.066,0,0.099,0
			c-0.255,1.544-1.465,3.054-2.182,4.265c-2.81,4.741-5.854,8.792-9.126,12.994c-1.289,1.455-2.579,2.91-3.868,4.364
			c0.959-0.661,1.918-1.323,2.877-1.984c4.353-2.936,8.176-6.178,11.804-9.82c1.028-1.032,3.153-4.457,4.364-4.86
			c-0.5,15.069-6.424,29.541-15.077,36.502c-2.179,1.753-4.3,3.57-6.745,5.059c-1.251,0.762-3.548,1.364-4.464,2.48
			c1.554-0.397,3.108-0.794,4.662-1.19c5.81-1.812,9.527-4.405,13.688-7.638c0.033,0.033,0.066,0.066,0.099,0.099
			c-3.93,8.385-7.968,15.611-16.466,19.342c-1.912,0.84-3.851,1.144-5.951,1.984c-0.066,0.033-0.132,0.066-0.198,0.099
			c0.879,0.629,3.639,0.303,4.96,0.298c3.152-0.013,6.226-0.605,8.729-1.488c1.091-0.43,2.182-0.86,3.273-1.289
			c0,0.033,0,0.066,0,0.099c-5.314,9.846-18.086,19.438-30.352,22.318c0,0.099,0,0.198,0,0.298c2.589-0.14,6.109,0.317,9.026-0.198
			c8.316-1.469,15.586-3.219,22.615-5.951c4.85-1.885,9.855-3.46,15.077-5.059c2.035-0.623,4.231-1.533,6.745-1.488
			c0.066,0.198,0.132,0.397,0.198,0.595c-3.042,2.876-6.084,5.753-9.125,8.63c-1.818,1.851-3.637,3.703-5.455,5.555
			c-5.119,5.119-10.063,10.341-14.482,16.168c-2.418,3.188-4.651,6.426-6.844,9.919c-0.562,0.926-1.124,1.852-1.686,2.777
			c0.033,0,0.066,0,0.099,0c1.752-1.289,3.505-2.579,5.257-3.868c5.994-3.73,16.221-6.097,24.599-2.777
			c2.492,0.987,4.875,2.309,6.943,3.769c0.992,0.793,1.984,1.587,2.976,2.381c0.298,0.397,0.595,0.794,0.893,1.19
			c-30.04-7.942-51.532,14.335-63.184,30.253c-0.132,0-0.265,0-0.397,0c0.052-6.53,1.769-13.138,3.769-18.251
			c0.628-1.521,1.256-3.042,1.885-4.563c-0.033,0-0.066,0-0.099,0c-0.793,1.157-1.587,2.315-2.381,3.472
			c-3.605,5.475-6.555,11.842-8.729,18.747c-1.025,3.637-2.05,7.274-3.075,10.911c-0.651-0.681-0.206-2.317-0.397-3.472
			c-0.667-4.034-0.427-9.524,0.198-13.391c0.538-3.331,0.448-6.33,1.19-9.324c1.927-7.766,4.712-14.221,8.729-19.838
			c1.62-1.851,3.24-3.703,4.86-5.555c0.86-0.727,1.719-1.455,2.579-2.182c-2.68,0.736-9.178,6.87-10.911,9.026
			c-4.611,5.737-8.494,11.332-10.613,19.739c-1.926,7.643-1.196,18.447,0.198,26.186c1.049,5.821,1.343,11.412,2.579,16.962
			c2.075,9.317,4.322,18.336,6.943,27.079c1.727,5.758,3.232,11.44,4.563,17.458C252.199,700.503,241.601,710.141,234.072,715.618z
			 M262.936,606.608c1.776-1.416,4.171-2.563,5.555-4.364c0.099,0,0.198,0,0.298,0c-0.841,7.299-2.584,15.445-7.34,18.945
			c-4.511,3.32-11.778,4.591-15.176,9.026c-0.132,0-0.265,0-0.397,0c-0.033-0.066-0.066-0.132-0.099-0.198
			c0.76-2.148,2.613-7.886,4.166-8.927c1.351,0.5,3.629,0.485,5.158,0.198C261.665,620.057,263.075,614.536,262.936,606.608z
			 M315.011,616.229c0.033,0.066,0.066,0.132,0.099,0.198c-0.92,0.992-5.322,1.686-6.844,2.281
			c-4.767,1.866-9.715,3.759-13.986,6.249c-8.183,4.771-15.804,9.776-23.111,15.375c-3.57,3.042-7.142,6.084-10.713,9.125
			c0.696,8.771-0.322,17.153-2.48,24.103c-0.793,2.149-1.587,4.298-2.381,6.447c-0.099,0.066-0.198,0.132-0.298,0.198
			c-0.827-3.868-1.653-7.737-2.48-11.605c-0.86-3.537-1.719-7.076-2.579-10.613c-1.786-6.049-4.351-14.172-0.595-19.937
			c2.156-3.309,6.208-4.575,10.018-6.249c4.088-1.797,7.721-4.586,11.01-7.241c4.918-3.971,6.668-11.126,10.613-16.069
			c2.772-3.472,7.619-6.026,12.399-7.439c1.653-0.264,3.306-0.529,4.959-0.794c5.281,0.008,9.713,0.561,13.093,2.48
			c0,0.099,0,0.198,0,0.298c-6.339,2.744-11.556,5.584-16.763,9.324c-2.977,2.138-5.606,4.771-8.431,7.043
			c-1.656,1.332-6.388,5.217-7.241,6.943c-0.562,0.595-1.124,1.19-1.686,1.785c0.959-0.628,1.918-1.256,2.877-1.885
			c1.984-1.091,3.968-2.182,5.951-3.273C294.101,619.068,303.47,616.01,315.011,616.229z M308.96,528.347
			c-3.568,1.461-7.119,3.055-10.316,4.96c-1.552,0.925-3.2,2.742-5.059,3.174c0.509-1.788,2.64-3.308,3.67-4.761
			c3.079-4.343,5.987-8.811,8.729-13.49c8.135-13.883,17.261-39.686,13.192-62.787c-1.039-5.898-1.681-11.144-3.769-15.87
			c1.806,1.474,3.871,8.863,4.761,11.704c5.345,17.057,4.159,42.915-0.198,60.109c-1.054,4.158-2.057,8.046-3.372,11.804
			c-0.331,0.992-0.661,1.984-0.992,2.976C313.391,526.892,311.175,527.62,308.96,528.347z M183.088,658.286c0,0.099,0,0.198,0,0.298
			c1.246-0.586,4.046-9.849,2.579-12.002c-0.783-1.149-3.541-1.546-5.158-1.785c0.463,0.76,0.926,1.521,1.389,2.281
			C183.103,649.691,184.264,654.662,183.088,658.286z M152.636,532.711c-0.066-0.132-0.132-0.265-0.198-0.397
			c3.871,1.143,7.834,2.192,13.192,2.281c0.033-0.066,0.066-0.132,0.099-0.198c0-0.033,0-0.066,0-0.099
			c-11.409-2.493-16.655-11.334-20.929-21.128c0-0.132,0-0.265,0-0.397c1.542,0.5,2.691,2.629,3.968,3.571
			c3.436,2.535,7.68,5.332,12.696,6.15c-0.45-0.97-2.687-1.684-3.571-2.281c-2.063-1.396-4.402-3.427-5.951-5.356
			c-8.313-10.349-12.401-19.027-11.903-37.692c0.033,0,0.066,0,0.099,0c1.455,2.116,2.91,4.232,4.364,6.348
			c3.303,4.634,7.393,9.444,11.804,12.994c1.091,1.025,2.182,2.05,3.273,3.075c0.066,0.066,0.132,0.132,0.198,0.198
			c0.033,0,0.066,0,0.099,0c-0.414-1.479-3.107-3.914-4.067-5.257c-3.103-4.344-5.953-8.836-8.233-13.986
			c-0.641-1.447-1.87-3.119-2.083-4.86c0.033,0,0.066,0,0.099,0c2.404,1.445,5.678,6.821,8.034,7.638c0-0.033,0-0.066,0-0.099
			c-4.245-7.165-9.614-13.485-13.887-20.83c-2.26-3.885-4.129-8.457-5.555-12.994c-0.813-2.586-1.213-5.626-2.281-7.935
			c-0.198-0.033-0.397-0.066-0.595-0.099c-2.501,2.363-3.175,6.54-4.166,10.415c-2.381,9.312-2.983,23.076-1.091,33.526
			c0.851,4.698,1.303,9.045,2.579,13.292c4.026,13.4,9.669,24.181,16.962,34.121c7.269,9.908,14.525,17.251,31.047,18.053
			c-0.066-0.118-8.304-3.626-9.225-4.166C162.245,543.565,155.191,538.188,152.636,532.711z M217.705,605.12
			c-0.033-1.818-0.066-3.637-0.099-5.456c-0.298-4.232-0.595-8.465-0.893-12.696c-0.718-3.787-1.197-7.581-2.281-11.01
			c-2.419-7.65-6.312-13.631-10.613-19.342c-1.711-2.272-6.515-8.588-8.927-9.621c1.19,1.322,2.381,2.645,3.571,3.968
			c1.62,2.513,3.24,5.026,4.86,7.538c4.877,8.324,7.483,18.378,10.117,28.964c1.741,6.995,2.102,14.486,3.372,21.921
			c0.298,3.504,0.595,7.01,0.893,10.514c-0.033,0.066-0.066,0.132-0.099,0.198c0.099,0,0.198,0,0.298,0
			c-0.033-2.678-0.066-5.357-0.099-8.034C217.771,609.749,217.738,607.434,217.705,605.12z M242.007,548.086
			c1.025-1.124,2.05-2.248,3.075-3.372c-0.066,0-0.132,0-0.198,0c-1.785,1.785-3.571,3.571-5.356,5.356
			c-3.974,4.963-8.01,10.293-10.713,16.466c-6.039,13.793-6.074,33.684-5.951,53.761c0.066,0.033,0.132,0.066,0.198,0.099
			c0.165-2.843,0.331-5.687,0.496-8.53c1.092-6.562,1.114-13.092,2.381-19.342c2.829-13.956,5.585-27.302,11.804-37.891
			C239.163,552.45,240.585,550.268,242.007,548.086z"/>
	</g>
</g>
<g>
	<g>
		<path style="fill-rule:evenodd;clip-rule:evenodd;" d="M1027.442,584.333c-2.829-8.02-4.257-17.727-8.332-24.698
			c-2.651-4.535-7.029-7.431-9.126-12.3c-2.499-5.802-3.74-15.55-10.217-17.061c0.76,0.992,1.521,1.984,2.281,2.976
			c1.176,1.882,1.866,4.115,2.579,6.447v0.595c-5.393,0.996-14.355-2.941-18.152-4.563c-0.727-0.364-1.455-0.727-2.182-1.091
			c0.27,0.824,1.131,1.231,1.686,1.785c1.851,1.719,3.703,3.439,5.555,5.158c0.959,0.727,1.918,1.455,2.877,2.182
			c0.066,0.033,0.132,0.066,0.198,0.099v0.099c-6.007-1.246-12.238-2.087-17.854-3.769c-3.667-1.099-8.541-3.047-13.391-2.182
			c-10.345,1.846-16.877,10.356-22.02,17.557c-1.374,1.923-5.018,6.3-5.654,8.431c1.087-0.283,1.768-1.461,2.579-2.083
			c1.686-1.223,3.373-2.447,5.059-3.67c5.395-3.795,11.734-7.073,19.342-8.53c10.136-1.942,18.371,10.145,24.401,13.986
			c1.984,1.264,4.315,2.315,6.745,3.075c1.554,0.397,3.108,0.794,4.662,1.19c2.021,0.84,2.527,2.707,4.067,3.868
			c0.902,0.68,2.856,0.455,3.769,0.992c3.803,2.235,6.128,6.648,8.431,10.415c2.909,4.926,5.819,9.853,8.729,14.779
			c1.216,1.93,3.725,8.194,7.439,6.547c1.773-0.786,1.859-3.697,1.289-5.951C1030.617,593.855,1029.029,589.093,1027.442,584.333z
			 M1003.537,560.725c-1.29,0.168-3.104-0.404-4.364-0.694c-5.692-1.31-9.412-2.891-11.506-7.737
			c-0.352-0.814-1.058-2.1-0.893-3.075c2.446,0.198,4.894,0.397,7.34,0.595c0.233,0.524,0.072,1.316,0.198,2.083
			c0.398,2.415,1.133,4.678,2.976,5.654c2.604-0.142,3.323-3.955,3.571-6.547C1004.831,551.241,1004.982,557.513,1003.537,560.725z
			 M1073.367,602.385c-6.113-8.578-13.791-15.915-20.235-24.202c-5.702-7.333-10.918-14.509-15.771-22.814
			c-1.089-1.863-2.527-4.096-3.075-6.348c-0.538-2.212,0.339-5.052,0.694-7.043c0.198-2.149,0.397-4.298,0.595-6.447
			c0.033-1.851,0.066-3.703,0.099-5.555c0-6.414-0.48-12.229-1.686-17.656c-3.07-13.809-8.065-28.079-3.472-43.545
			c0.604-2.034,0.959-4.013,1.785-5.753c-0.066-0.033-0.132-0.066-0.198-0.099c-1.818,2.248-3.637,4.497-5.455,6.745
			c-2.909,3.339-5.819,6.679-8.729,10.018h-0.397c-2.076-7.426,0.652-16.307,2.48-22.318c4.704-15.47,10.387-29.699,16.267-44.04
			c2.162-5.272,4.47-10.616,6.348-16.168c0.703-2.078,1.087-5.383-0.099-7.241c-1.292-2.024-4.205-2.382-6.745-1.289
			c-4.338,1.865-8.104,5.514-11.804,8.233c-11.3,8.304-21.983,17.456-33.13,25.889c-6.11,4.622-12.595,9.249-18.152,14.482
			c-0.165-0.033-0.331-0.066-0.496-0.099c-1.676-6.989-4.142-13.86-6.646-20.235c-3.157-8.037-6.003-15.841-10.117-22.814
			c-2.538-4.301-5.504-10.934-12.101-11.01c-1.349,0.576-2.629,0.617-3.769,1.289c-5.277,3.112-10.882,9.08-14.68,13.787
			c-2.116,2.38-4.232,4.761-6.348,7.142c-5.671,7.205-10.902,14.549-15.87,22.516c-3.244,5.202-7.937,12.575-9.721,18.846
			c-1.68,0.828-3.297,1.056-4.662,2.083c-3.76,2.829-5.716,7.516-8.332,11.506c-4.055,6.184-8.856,12.438-14.581,16.962
			c-2.738,2.163-5.536,4.251-8.63,6.051c-1.014,0.59-3.607,1.098-4.067,2.182c4.124-0.947,8.88-1.777,13.192-2.877
			c2.015-0.514,4.226-1.353,6.547-1.389c0.033,0.066,0.066,0.132,0.099,0.198c-0.337,3.26-5.213,7.119-7.439,8.828
			c-6.56,5.035-13.953,9.246-22.02,12.796c-3.04,1.337-6.056,3.115-9.522,3.968c0.123,0.291,6.237-0.941,7.539-1.289
			c4.43-1.091,8.861-2.182,13.291-3.273c3.174-0.926,6.349-1.852,9.522-2.777c0.066,0.066,0.132,0.132,0.198,0.198
			c-3.498,6.846-9.351,12.624-14.581,17.854c-12.706,12.707-27.62,23.469-45.231,31.245c-5.417,2.392-10.981,4.75-16.763,7.043
			c-2.568,1.018-5.603,2.595-8.63,2.877v0.298c17.921-1.247,35.253-2.716,50.19-7.142h0.794c-0.337,1.586-3.898,4.177-5.158,5.158
			c-5.507,4.289-11.61,8.05-17.259,12.2c-14.071,10.337-32.123,26.704-38.089,44.735c1.315-0.38,2.087-2.082,3.075-2.877
			c1.984-1.686,3.968-3.373,5.951-5.059c6.638-5.131,13.604-9.307,21.128-13.688c2.256-1.314,4.827-2.948,7.538-3.67
			c-1.157,0.793-2.315,1.587-3.472,2.381c-1.884,1.62-3.769,3.24-5.654,4.86c-6.238,5.025-12.645,15.491-15.87,23.607
			c-1.46,3.675-2.488,7.724-3.372,11.903c-1.039,4.912-1.564,11.925-0.694,17.358c0.639,3.99,0.585,7.54,1.488,11.109
			c3.576,14.133,9.521,24.309,17.16,34.121c2.798,3.594,6.144,7.626,9.82,10.316h0.099c-1.058-1.488-2.116-2.976-3.174-4.464
			c-1.893-3.012-3.528-6.432-4.96-9.82c-2.25-5.323-3.695-11.157-4.96-17.458c-0.198-2.182-0.397-4.365-0.595-6.547
			c-0.033-2.248-0.066-4.497-0.099-6.745c0.397-3.174,0.794-6.348,1.19-9.522c0.066-0.033,0.132-0.066,0.198-0.099
			c0.198,1.256,0.397,2.513,0.595,3.769c0.661,2.48,1.323,4.96,1.984,7.439c2.307,7.357,5.561,14.065,9.324,20.036
			c11.766,18.67,30.938,31.716,54.158,38.883c6.354,1.961,13.053,3.366,19.838,4.96c10.249,2.407,21.387,2.357,32.832,3.868
			c-0.309-0.633-7.334-2.411-8.53-2.877c-7.652-2.978-15.136-5.944-21.822-9.919c-22.234-13.217-38.907-33.592-40.37-67.449h0.198
			c1.368,4.313,3.795,8.365,5.951,12.002c6.874,11.594,15.333,22.046,25.591,30.253c3.782,3.026,7.389,6.069,11.605,8.729
			c1.025,0.661,2.05,1.323,3.075,1.984v-0.099c-0.86-1.256-1.719-2.513-2.579-3.769c-2.885-4.923-4.459-10.613-5.654-17.259
			c-2.798-15.564,7.412-30.781,15.077-36.8c2.617-2.055,7.16-5.843,11.01-6.348c-0.208,1.554-1.409,2.831-1.984,4.166
			c-0.956,2.219-1.657,4.751-2.281,7.241c-2.315,9.232-2.584,23.332-0.496,33.03c0.546,2.534,0.941,8.295,2.281,9.919
			c0.033,0.066,0.066,0.132,0.099,0.198c0.066-0.066,0.132-0.132,0.198-0.198c-1.464-3.424-0.193-11.649,0.496-14.978
			c2.905-14.032,8.284-23.493,16.366-32.138c10.193-10.903,23.194-17.568,40.172-21.822c3.057-0.766,6.513-1.019,9.919-1.587
			c1.686-0.066,3.373-0.132,5.059-0.198c1.521-0.033,3.042-0.066,4.563-0.099c5.78,0.963,11.539,0.61,16.267,2.48
			c3.736,1.884,7.473,3.769,11.208,5.654c4.278,1.885,8.701,3.617,13.787,4.761c17.567,3.953,35.139-3.477,44.933-10.415
			c3.429-2.429,6.656-5.158,8.828-8.828C1078.429,610.023,1075.542,605.437,1073.367,602.385z M1004.629,441.895
			c5.609-9.187,11.461-17.888,17.557-26.484c3.728-5.257,7.288-10.309,12.3-14.283c0.297,0.033,0.595,0.066,0.893,0.099h0.198
			c0.121,3.13-2.899,7.842-4.067,10.514c-3.837,8.779-8.183,17.065-13.49,24.302c0.066,0.066,0.132,0.132,0.198,0.198l5.158-5.158
			c1.091-1.322,2.182-2.645,3.273-3.968c0.033,0.033,0.066,0.066,0.099,0.099c-2.549,5.191-4.947,10.341-7.935,15.077
			c-1.521,2.017-3.042,4.034-4.563,6.051c-0.298,0.331-0.595,0.661-0.893,0.992h0.298c1.678-1.262,5.566-4.226,6.447-6.051
			c0.231-0.198,0.463-0.397,0.694-0.595c0.066,0.033,0.132,0.066,0.198,0.099c-1.632,3.795-3.36,7.521-5.555,10.812
			c-0.82,1.23-2.708,2.594-3.075,4.067c2.204-0.66,3.72-3.669,5.555-4.265c-0.479,3.495-5.507,12.578-8.332,13.589
			c-3.987,1.427-10.833-6.062-11.506-8.828C996.95,453.514,1002.869,444.777,1004.629,441.895z M833.922,613.99
			c-1.702,4.369-2.67,9.208-3.67,14.184c-1.234,6.141-1.411,14.474-0.298,20.83c0.854,4.875,1.338,9.123,2.678,13.391
			c4.4,14.015,11.705,24.027,19.838,34.121c3.393,4.211,8.732,8.626,13.093,11.903c2.314,1.653,4.629,3.307,6.943,4.96
			c-5.495-2.189-11.184-6.252-16.069-9.324c-14.96-9.407-28.165-21.59-35.014-39.081c-5.163-13.184-4.935-31.439,0.298-44.338
			c3.841-9.47,9.12-15.946,14.978-23.211c1.388-1.488,2.777-2.976,4.166-4.464c1.719-1.488,3.439-2.976,5.158-4.464
			c1.455-1.058,2.91-2.116,4.364-3.174c0.066,0.033,0.132,0.066,0.198,0.099c-0.694,0.76-1.389,1.521-2.083,2.281
			c-1.455,1.951-2.91,3.902-4.364,5.852C839.925,599.623,836.796,606.612,833.922,613.99z M958.505,613.494
			c-19.582,5.112-37.18,19.703-46.619,35.113c-2.971,4.85-6.695,10.902-7.638,17.457c-0.356-0.248,0.387-4.774,0.595-5.753
			c1.146-5.404,2.435-10.605,4.265-15.275c4.862-12.407,12.292-26.912,25.889-30.352c5.114-1.294,11.367-0.261,17.16-1.19
			c2.046-0.328,4.61,0.446,6.249-0.298C958.617,613.429,958.456,613.185,958.505,613.494z M1068.309,601.592
			c-5.604,1.054-9.182,3.409-13.093,6.051c-1.955,1.32-4.457,2.717-3.472,6.348c0.839,3.091,3.13,6.248,5.356,8.034
			c0.743,0.596,1.679,1.051,2.182,1.885c-1.191,1.461-4.538,1.676-6.646,2.182c-8.375,2.011-19.453,0.848-26.186-1.785
			c-17.7-6.923-28.975-20.545-44.041-30.154c-4.981-3.177-10.235-5.723-16.168-8.034c-4.562-1.322-9.126-2.645-13.688-3.968
			c-0.066,0.099-0.132,0.198-0.198,0.298c2.812,4.049,8.711,5.712,12.597,8.729c0.897,0.696,0.263,2.287,0.893,3.273
			c0.832,1.303,2.513,2.482,3.769,3.372c10.311,7.303,22.976,11.937,33.328,19.243c7.142,5.04,15.025,13.347,26.98,13.292
			c-1.006,0.848-7.769-0.697-8.828-0.992c-7.984-2.224-14.05-6.477-20.83-9.919c-11.109-5.64-22.73-9.794-36.998-12.399
			c-21.608-3.945-40.717,1.514-50.091,13.192c-2.175,2.709-5.182,5.634-6.348,9.225c-0.165,0.132-0.331,0.265-0.496,0.397
			c-1.28-5.245,3.438-16.377,5.257-19.441c0.992-1.521,1.984-3.042,2.976-4.563c-0.992,0.496-1.984,0.992-2.976,1.488
			c-3.819,1.944-7.271,4.08-10.613,6.447c-11.427,8.094-21.22,17.896-26.682,31.939c-1.381,3.549-3.401,12.562-2.48,17.953
			c1.041,6.093,1.366,11.375,2.976,16.565c1.157,3.108,2.315,6.216,3.472,9.324h-0.099c-2.465-2.1-4.449-5.475-6.348-8.134
			c-8.345-11.684-17.025-32.578-11.704-53.265c2.5-9.72,6.832-16.605,12.2-23.31c6.47-8.079,16.087-13.172,25.294-18.549
			c3.802-1.719,7.605-3.439,11.407-5.158c-0.824-0.6-5.448-0.496-6.943-0.496c-6.393,0.001-12,0.862-16.962,2.281
			c-17.649,5.049-28.293,15.858-36.7,30.154c-1.95,3.316-3.896,7.254-5.059,11.208c-0.099,0.066-0.198,0.132-0.298,0.198
			c4.076-15.12,7.359-29.618,14.383-41.66c2.929-5.023,5.975-9.879,9.423-14.383c1.653-1.884,3.307-3.769,4.96-5.654
			c3.724-4.622,8.577-8.465,13.589-11.804c1.359-0.906,2.8-2.138,4.464-2.678c0.033-0.066,0.066-0.132,0.099-0.198
			c-0.066-0.066-0.132-0.132-0.198-0.198c-2.281,0.331-4.563,0.661-6.844,0.992c-4.059,0.895-8.017,1.758-11.605,3.174
			c-14.704,5.804-25.548,14.854-34.022,26.881c-2.737,3.884-6.036,8.458-7.539,13.391c-0.066,0.033-0.132,0.066-0.198,0.099
			c0.275-2.293,1.281-4.541,1.984-6.547c2.341-6.678,4.835-12.748,8.134-18.35c13.573-23.049,33.371-39.225,58.919-50.289
			c7.786-3.372,15.761-5.725,24.897-8.034c2.12-0.536,8.002-2.104,10.415-1.389c0.099-0.033,0.198-0.066,0.298-0.099v-0.099
			c-1.42-1.069-4.67-0.728-6.646-1.091c-6.377-1.171-14.15-0.563-21.128-0.496v-0.099c11.089-1.706,22.07-4.446,31.443-8.134
			c2.28-0.897,8.5-3.118,8.233-6.051c-0.195-2.141-2.619-4.099-3.67-5.654c-3.504-4.992-7.01-9.986-10.514-14.978
			c0.033-0.033,0.066-0.066,0.099-0.099c2.248,0.827,4.497,1.653,6.745,2.48h0.298c-0.986-3.52-3.668-6.261-5.257-9.225
			c0.987,0.171,1.551,0.852,2.281,1.289c2.83,1.693,5.602,3.551,8.431,5.059h0.099c-0.46-4.807-6.364-11.973-9.522-14.383
			c-0.033-0.099-0.066-0.198-0.099-0.298c1.407,0.181,2.797,1.162,3.868,1.785c2.05,1.025,4.1,2.05,6.15,3.075
			c1.719,1.058,3.439,2.116,5.158,3.174l0.397,0.198c-1.785-2.546-3.571-5.092-5.356-7.638c-3.075-4.265-6.15-8.531-9.225-12.796
			c-1.18-1.653-2.243-3.654-3.769-4.96v-0.397h0.099c4.066,2.479,8.134,4.96,12.2,7.439c1.984,1.521,3.968,3.042,5.951,4.563
			c0.463,0.463,0.926,0.926,1.389,1.389h0.099c-0.508-1.951-2.899-3.59-4.067-5.059c-2.542-3.197-5.556-6.57-8.729-9.126
			c-1.653-1.388-3.307-2.777-4.96-4.166c1.521,0.694,3.042,1.389,4.563,2.083c4.391,2.235,8.458,4.493,12.3,7.241
			c1.653,1.223,3.307,2.447,4.96,3.67c0.397,0.397,0.794,0.794,1.19,1.19h0.099c-0.425-1.768-3.273-4.797-4.364-6.348
			c-2.711-3.853-5.534-7.54-8.233-11.308c-1.388-1.938-2.768-4.222-4.563-5.753c-0.033-0.099-0.066-0.198-0.099-0.298
			c1.177,0.005,2.948,1.591,4.067,2.182c3.502,1.851,9.682,5.197,12.002,8.034c0.099,0.033,0.198,0.066,0.298,0.099l0.099-0.099
			c-1.882-9.222-4.721-17.706-8.431-25.194c-1.065-2.15-2.223-6.276-4.761-6.844c-2.563-0.574-7.434,7.045-8.63,8.729
			c-7.336,10.333-12.79,21.54-16.168,36.006c-2.031,8.696-0.648,20.063,1.587,27.377c1.283,4.2,2.937,8.137,3.769,12.696
			c0.978,5.361-3.33,7.511-6.348,9.026c-0.981,0.492-3.152,1.633-4.761,0.992c-2.199-0.876-2.478-4.404-3.075-6.943
			c-1.788-7.615-2.348-19.388-0.794-27.872c0.97-5.294,1.53-10.454,2.976-15.275c4.083-13.621,9.879-25.165,17.16-35.51
			c4.073-5.787,8.399-12.42,14.779-15.87c5.377-0.032,10.004,12.306,11.903,16.664c3.668,8.419,6.668,17.671,9.522,26.98
			c1.752,6.744,3.505,13.491,5.257,20.235c1.389,4.86,2.777,9.721,4.166,14.581c0.694,1.984,1.389,3.968,2.083,5.951
			c0.198,0.066,0.397,0.132,0.595,0.198c3.037-5.668,8.551,1.892,12.101,2.777v-0.099c-1.567-2.578-3.576-5.021-5.158-7.737
			c-3.142-5.394-4.833-11.559-7.142-17.854c1.422,2.281,2.844,4.563,4.265,6.844c3.714,5.121,8.035,9.999,13.192,13.688
			c0.76,0.595,1.521,1.19,2.281,1.785l0.397,0.397l0.198-0.198c-2.413-4.199-4.827-8.398-7.241-12.597
			c-1.279-2.154-3.892-5.66-4.464-8.134c3.559,2.685,6.31,6.519,9.82,9.324c7.683,6.142,14.581,13.261,19.937,21.723
			c1.223,1.917,2.447,3.836,3.67,5.753c0.099,0.033,0.198,0.066,0.298,0.099c0.678-0.826,1.382-7.181,1.488-8.63h0.298
			c0.011,13.002,4.989,22.34,7.439,33.328c1.112,4.987,1.82,12.341,0.794,18.152c-0.549,3.106-2.006,8.405-1.19,11.903
			c1.425,6.111,5.973,12.734,9.225,17.358c3.68,5.234,7.984,9.612,11.903,14.482c2.589,3.217,5.615,6.535,8.828,9.125
			c3.339,3.207,6.679,6.415,10.018,9.621V601.592z"/>
	</g>
</g>
<g>
	<g>
		<path style="fill-rule:evenodd;clip-rule:evenodd;" d="M496.99,646.978c1.281-0.428,4.967-7.153,5.951-8.63
			c3.835-5.356,7.671-10.713,11.506-16.069c2.017-2.479,4.034-4.96,6.051-7.439c0.331-0.364,0.661-0.727,0.992-1.091h-0.298
			c-3.405,4.449-7.939,8.043-11.407,12.498c-4.949,6.359-8.912,13.086-12.796,20.632V646.978z M710.448,619.999
			c-1.1-6.783-1.798-12.668-3.571-18.35c-5.272-16.897-13.042-29.853-22.814-42.057c-2.801-3.498-6.404-7.237-9.919-10.018
			c-1.818-1.455-3.637-2.91-5.455-4.364c0.033-0.066,0.066-0.132,0.099-0.198c3.667,0.684,7.288,3.613,10.018,5.555
			c0.727,0.562,1.455,1.124,2.182,1.686v-0.099c-3.784-5.454-14.369-15.299-21.227-17.358c-0.066-0.099-0.132-0.198-0.198-0.298
			c2.215-2.413,4.431-4.828,6.646-7.241c5.688-7.254,10.961-15.989,11.605-28.17h-0.099c-0.264,0.893-0.529,1.786-0.794,2.678
			c-0.694,1.719-1.389,3.439-2.083,5.158c-2.695,5.734-7.122,9.818-12.994,12.399c0.073-1.039,2.922-4.295,3.67-5.555
			c2.525-4.256,4.498-9.103,6.249-14.085c3.865-10.996,5.522-23.206,8.134-35.609c0.595-4.562,1.19-9.126,1.785-13.688
			c0.198-2.975,0.397-5.952,0.595-8.927c1.249-7.348,0.172-16.991-4.166-19.64c-2.065-1.261-5.639-0.755-7.737,0.099
			c-5.517,2.247-10.18,6.423-14.383,10.117c-5.984,5.554-11.97,11.11-17.953,16.664c-4.211,3.387-7.709,7.744-12.002,11.109
			c-4.788,3.753-9.749,7.052-15.077,10.316c-3.432,2.103-7.124,4.537-11.01,6.051h-0.298c7.901-7.009,15.805-14.02,23.706-21.028
			c1.339-1.078,8.335-7.009,8.729-8.134h-0.099c-5.603,3.095-11.747,5.602-18.648,7.538c-6.943,1.488-13.887,2.976-20.83,4.464
			c-10.356,2.648-20.444,5.382-29.261,9.423c-0.066-0.066-0.132-0.132-0.198-0.198c4.059-9.907,9.056-18.875,16.763-25.095
			c2.658-2.145,4.948-5.396,8.332-6.745c0.099-0.132,0.198-0.265,0.298-0.397v-0.099c-1.289,0.529-2.579,1.058-3.868,1.587
			c-3.804,1.508-7.356,3.002-10.812,4.761c-8.708,4.432-16.578,9.275-24.202,14.68c-2.802,1.986-5.654,3.846-8.134,6.15
			c-0.099,0.033-0.198,0.066-0.298,0.099c-0.926-2.017-1.852-4.034-2.777-6.051c-1.54-2.605-3.442-4.85-5.257-7.142
			c-0.936-1.181-2.326-3.29-3.868-3.769c0.661,1.223,1.323,2.447,1.984,3.67c0.958,2.476,1.248,9.778,0.099,12.399
			c-0.066,0.099-0.132,0.198-0.198,0.298c-2.876-3.471-5.753-6.944-8.63-10.415c-3.604-3.901-7.208-7.803-10.812-11.704
			c-3.628-4.497-8.512-9.769-12.994-13.391c-4.096-3.31-8.824-10.61-15.672-10.713c-1.149,0.524-2.079,0.657-2.777,1.587
			c-3.554,4.73-2.821,21.653-1.587,28.964c1.68,9.95,3.28,19.118,5.951,27.972c1.355,4.529,2.711,9.06,4.067,13.589
			c-0.793,3.703-1.587,7.407-2.381,11.109c-1.094,2.701-2.945,5.053-4.067,7.935c-0.779,2.002-0.687,4.509-1.587,6.646
			c-0.033,0.066-0.066,0.132-0.099,0.198c-1.262-3.19,1.523-11.353,2.678-12.696v-0.099c-0.066-0.033-0.132-0.066-0.198-0.099
			c-3.58,5.127-6.817,12.716-6.646,21.326c-0.066,0.033-0.132,0.066-0.198,0.099c-0.408-1.699-0.396-4.885-0.099-6.745
			c0.165-2.116,0.331-4.232,0.496-6.348c0.618-3.181,1.445-6.333,2.182-9.225c-1.262,1.176-2.887,6.805-3.67,8.828
			c-3.996,10.32-5.927,23.137-5.455,37.494c0.302,9.189,5.572,20.652-1.389,26.087v0.298c1.322,1.223,2.645,2.447,3.968,3.67
			c2.945,3.322,6.253,7.235,7.439,12.2c0.066,0.033,0.132,0.066,0.198,0.099c0.499-0.745,0.083-8.845-0.298-9.721v-0.099
			c1.157,0.542,0.855,2.482,1.091,3.968c0.729,4.596-0.305,9.613-1.389,13.292c-3.379,11.463-9.472,20.669-15.672,29.36
			c-2.207,3.093-4.381,7.067-7.241,9.522v0.298c0.066,0.033,0.132,0.066,0.198,0.099c5.347-2.917,9.277-8.778,12.895-13.49
			c6.46-8.412,12.691-16.796,16.168-28.269c0.852-2.812,1.045-5.597,1.587-8.828c0.53-3.162,0.664-7.419,0.099-10.713
			c-0.895-5.217-2.341-9.346-4.166-13.49c-1.73-3.928-4.414-7.076-5.257-12.002c-0.464-2.714,0.425-5.234,0.992-7.043
			c1.475-4.709,4.083-9.043,4.265-14.779c0.066-0.033,0.132-0.066,0.198-0.099c0.529,2.479,1.058,4.96,1.587,7.439
			c1.119,4.241,3.666,11.898,6.15,14.68c0.033,0.066,0.066,0.132,0.099,0.198c-0.298-2.513-0.595-5.026-0.893-7.538
			c-0.99-6.409-0.214-14.036-0.198-20.731h0.099c1.271,6.72,2.232,13.09,4.067,19.144c1.256,4.066,2.513,8.134,3.769,12.2
			c0.066,0.033,0.132,0.066,0.198,0.099c0.066-0.033,0.132-0.066,0.198-0.099c-0.174-2.346,0.134-5.2,0.496-7.439
			c0.901-5.572,1.179-10.941,2.281-15.97c2.948-13.447,6.285-25.531,10.911-37.196c1.985-5.005,4.725-9.878,6.547-14.779
			c0.132-0.066,0.265-0.132,0.397-0.198c-2.076,5.909-3.326,11.989-5.059,18.35c-4.516,16.577-7.234,35.032-7.142,55.943h0.099
			c0.912-1.189,0.498-4.421,0.794-6.051c0.826-4.463,1.653-8.928,2.48-13.391c3.77-15.153,8.968-28.359,15.97-40.172
			c0.99-1.67,5.905-10.596,7.042-11.01c-1.157,4.166-2.315,8.332-3.472,12.498c0.066,0.066,0.132,0.132,0.198,0.198
			c0.595-1.422,1.19-2.844,1.785-4.265c1.355-2.744,2.711-5.489,4.067-8.233c1.752-3.174,3.505-6.349,5.257-9.522
			c0.132-0.033,0.265-0.066,0.397-0.099v0.099c-1.032,2.414-1.755,5.973-3.372,7.935v0.099c0.066,0.033,0.132,0.066,0.198,0.099
			c2.281-2.612,4.563-5.224,6.844-7.836c1.752-1.653,3.505-3.307,5.257-4.959l2.976-2.976c5.189-4.154,10.312-9.002,16.366-12.2
			c0.033,0.033,0.066,0.066,0.099,0.099c-1.521,1.521-3.042,3.042-4.563,4.563c-2.638,3.277-5.442,6.372-7.638,10.117
			c-1.294,2.208-2.479,4.862-3.174,7.538c-0.165,1.554-0.331,3.108-0.496,4.662c-1.058,1.355-2.116,2.711-3.174,4.067
			c-3.868,5.819-7.737,11.639-11.605,17.458v0.099c1.537-0.737,3.107-3.345,4.166-4.662c2.93-3.643,7.013-7.352,10.713-10.217
			c8.997-6.967,18.595-13.081,29.956-17.755c3.613-1.487,7.317-2.349,11.208-3.571c4.879-1.532,10.917-3.232,16.664-3.472
			c0.033,0.066,0.066,0.132,0.099,0.198c-2.678,1.455-5.357,2.91-8.034,4.364c-9.059,5.681-17.249,13.777-21.723,24.004
			c-1.173,2.681-2.043,5.628-2.877,8.63c-0.331,1.554-0.661,3.108-0.992,4.662v0.298h0.099c0.529-1.058,1.058-2.116,1.587-3.174
			c1.19-2.043,3.844-6.538,5.852-7.538l0.397-0.397h0.099c-0.727,1.322-1.455,2.645-2.182,3.968
			c-0.86,2.314-1.719,4.629-2.579,6.943c-0.562,2.513-1.124,5.026-1.686,7.538c-0.132,1.091-0.265,2.182-0.397,3.273
			c0.132,0.066,0.265,0.132,0.397,0.198c1.131-4.744,4.097-9.748,7.439-12.399c1.157-0.793,2.315-1.587,3.472-2.381h0.397
			c0.033,0.066,0.066,0.132,0.099,0.198c-1.558,2.788-3.652,5.836-4.364,9.423h0.099c2.083-1.776,3.772-4.042,5.951-5.753
			c3.212-2.522,6.553-4.51,10.217-6.646c1.563-0.911,3.609-2.332,5.654-2.579c-0.504,1.289-2.896,2.308-3.868,3.273
			c-2.481,2.463-4.449,5.27-6.348,8.332v0.298c5.103-0.334,9.191-1.604,12.597-3.67c1.223-0.893,2.447-1.786,3.67-2.678
			c0.033,0.033,0.066,0.066,0.099,0.099c-0.461,1.915-2.558,3.542-3.67,4.96c-4.146,5.285-9.594,9.139-15.672,12.498
			c-2.215,0.959-4.431,1.918-6.646,2.876v0.099c4.642-0.35,10.516-1.747,15.672-0.694c5.378,1.098,8.269,4.079,13.192,5.257
			c8.558,2.049,16.584-2.183,21.624-5.257c1.756-1.072,4.748-2.303,5.654-4.166l0.397-0.298h0.099
			c-0.49,2.288-2.268,4.341-3.472,6.051c-3.876,5.503-13.379,13.478-24.103,11.506c-2.464-0.453-4.762-1.003-6.844-1.885
			c-0.826-0.43-1.653-0.86-2.48-1.289c0.496,1.521,3.166,3.012,4.364,3.968c4.107,3.276,8.059,6.72,12.3,9.919
			c14.521,10.953,31.607,19.769,46.123,30.749c3.98,3.011,7.521,6.33,11.01,9.82c1.021,1.021,2.529,2.021,3.174,3.372
			c0.132,0.165,0.265,0.331,0.397,0.496c-2.017-1.389-4.034-2.777-6.051-4.166c-4.641-2.833-10.124-5.151-15.672-6.943
			c-5.085-1.643-10.581-2.424-16.366-3.472c-3.258-0.59-6.43-0.019-9.919-0.595h-7.34c-2.744,0.264-5.489,0.529-8.233,0.794
			c-4.586,0.87-8.932,1.693-13.292,2.579v0.099h8.63c5.859,0.937,11.388,0.847,16.565,2.182
			c14.526,3.748,29.602,11.561,37.692,21.623c1.587,1.917,3.174,3.836,4.761,5.753c0.992,1.488,1.984,2.976,2.976,4.464v0.397
			c-0.033,0.033-0.066,0.066-0.099,0.099c-7.386-1.192-13.081-4.766-18.449-8.134c-2.248-1.587-4.497-3.174-6.745-4.761v0.099
			c1.653,1.62,3.307,3.24,4.96,4.86c5.049,6.274,8.326,10.599,10.316,20.235c0.527,2.553,1.242,9.819,0.099,12.3
			c-0.033,0.066-0.066,0.132-0.099,0.198c-0.264-1.785-0.529-3.571-0.794-5.356c-0.671-2.233-1.917-4.035-2.678-5.951l-0.397-0.099
			c1.496,6.299-1.241,11.749-1.587,17.259h-0.099c-0.364-1.091-0.727-2.182-1.091-3.273c-1.233-3.147-3.288-7.376-5.951-9.125
			c-0.832,0.68-1.176,1.975-1.686,2.976c-3.026,5.938-4.368,13.152-6.447,20.136c-3.996,13.42-7.366,26.287-13.787,36.998
			c-1.902,3.173-3.901,7.568-6.745,9.82c2.488-5.052,4.196-10.916,5.555-17.061c4.773-21.579-2.903-37.853-12.002-49.694
			c-1.922-2.501-4.048-5.329-6.547-7.241l-0.099,0.099c7.203,9.523,12.383,17.648,12.101,34.617h-0.198
			c-1.05-5.057-5.578-10.92-9.423-13.192c-0.066,0.066-0.132,0.132-0.198,0.198c2.758,2.827,4.462,8.488,4.464,13.887
			c-0.066,0.033-0.132,0.066-0.198,0.099c-0.628-1.719-1.256-3.439-1.885-5.158c-2.633-6.015-7.26-11.04-12.498-14.482
			c-4.832-3.175-10.552-5.224-16.862-6.943c-3.633-0.99-7.507-1.122-11.506-1.785c-10.078-1.673-22.353,1.397-29.063,4.067
			c-8.701,3.462-15.449,8.496-22.814,13.192c-4.496,2.678-8.994,5.357-13.49,8.034c-5.832,3.567-11.043,7.618-18.747,9.324
			c-6.607,1.463-14.872-1.034-20.136-2.381v-0.298c4.781,0.228,9.872,2.065,15.275,0.992c6.872-1.365,11.539-4.889,16.763-7.935
			c4.882-2.847,10.596-4.623,14.978-7.935c3.522-2.662,5.707-6.851,9.225-9.423c2.942-1.686,5.886-3.373,8.828-5.059
			c2.883-2.101,5.232-4.888,8.332-6.745c4.05-2.426,8.435-4.187,12.2-6.844c2.165-1.528,4.698-3.402,6.348-5.456
			c0.793-0.926,1.587-1.852,2.381-2.777h0.099c-0.173,2.725-1.301,4.802-2.083,6.844c-0.066,0.099-0.132,0.198-0.198,0.298
			c1.37-0.259,2.526-1.467,3.67-2.083c2.805-1.511,6.076-2.702,9.324-3.67c14.186-4.228,27.087-1.053,36.105,5.555h0.099
			c-0.836-1.868-3.678-3.529-5.257-4.761c-4.54-3.543-11.074-9.467-18.945-9.324l-0.099-0.099v-0.298
			c6.215-3.871,15.7-5.942,25.889-4.464v-0.198c-3.901-0.992-7.803-1.984-11.704-2.976c-2.678-0.364-5.357-0.727-8.034-1.091
			c-3.217-0.546-7.694-0.828-11.01-0.298c-3.636,0.581-6.945,0.136-10.316,0.794c-10.142,1.979-18.999,4.476-27.277,8.034
			c-4.322,1.858-8.265,3.956-12.101,6.249c-1.024,0.612-3.3,1.274-3.769,2.381c5.025,0.033,10.052,0.066,15.077,0.099v0.099
			c-1.094,1.29-4.929,2.511-6.547,3.472c-3.503,2.08-7.418,4.728-9.919,7.836c-2.048,2.546-4.209,5.094-5.951,7.935
			c-2.324,3.791-3.954,8.106-6.646,11.506c-2.516,3.178-6.717,4.532-10.316,6.646c-4.786,2.812-9.016,6.186-14.482,8.332
			c-2.301,0.904-6.018,1.858-9.423,1.289c-1.818-0.132-3.637-0.265-5.455-0.397c-1.19,0.364-2.381,0.727-3.571,1.091
			c-2.056,0.369-6.245-1.013-7.935-1.587l-0.198,0.198c1.686,0.959,3.373,1.918,5.059,2.877c0.959,0.926,1.918,1.852,2.877,2.777
			c3.98,3.04,10.873,6.207,18.251,4.662c6.727-1.408,11.471-4.895,16.466-8.034c6.863-4.313,13.313-8.336,22.715-10.217
			c7.56-1.512,16.825-0.199,22.913,1.686c16.198,5.016,27.419,14.031,33.427,29.261c1.242,3.147,2.062,6.818,2.777,10.514
			c0.165,1.917,0.331,3.836,0.496,5.753c0.269,1.617,0.816,5.7,0.198,7.043c0.033,0.099,0.066,0.198,0.099,0.298h0.099
			c0.463-1.851,0.926-3.703,1.389-5.555c1.689-6.09,2.48-15.203,0.992-22.119c-3.66-17.016-16.448-36.633-36.8-36.006v-0.198
			c13.61-3.138,29.315,0.032,39.775,4.166c2.659,1.051,5.276,2.525,7.836,3.472l0.298,0.397c-5.786-2.148-12.81-4.646-19.937-5.059
			c0.396,0.825,4.917,2.785,5.951,3.472c3.311,2.197,6.678,5.151,9.126,8.233c10.56,13.296,13.043,31.594,9.522,54.059h-0.099
			c-0.099-2.777-0.198-5.555-0.298-8.332c-0.676-4.434-0.858-8.775-1.885-12.796c-3.861-15.127-10.662-26.068-21.227-34.419
			c-2.132-1.685-4.152-3.766-6.547-5.158c-0.033,0.066-0.066,0.132-0.099,0.198c9.685,8.309,16.151,18.955,19.739,33.427
			c0.914,3.687,1.038,7.317,1.686,11.407c0.799,5.041,0.809,12.149,0,17.259c-0.595,3.802-1.19,7.605-1.785,11.407
			c-1.518,6.171-3.316,11.938-5.654,17.259c-0.992,1.884-1.984,3.769-2.976,5.654c-0.402,0.642-1.061,1.074-1.289,1.885
			c2.361-0.653,5.578-3.472,7.538-4.86c6.123-4.335,12.398-9.187,17.061-14.978c1.785-1.917,3.571-3.836,5.356-5.753
			c3.494-4.431,7.166-8.842,10.217-13.688c6.519-10.355,12.213-21.584,16.267-34.419c1.991-6.304,3.256-12.715,4.96-19.441
			c1.364-5.388,2.96-11.243,3.67-16.962h0.397c7.169,5.337,11.431,13.731,13.688,24.004c0.297,2.876,0.595,5.753,0.893,8.63
			c0.498,3.036-0.411,5.963-0.496,8.63c1.172-1.247,1.692-7.111,2.182-9.225c1.197-5.161,1.747-10.864,2.678-16.466
			c0.165-2.347,0.331-4.695,0.496-7.042c0.347-2.226,0.908-7.715,0.198-9.82c0.066-0.033,0.132-0.066,0.198-0.099
			c1.814,2.14,2.667,7.998,3.472,11.209c2.742,10.936,1.949,26.279-0.397,36.998c-0.671,3.066-1.016,6.095-2.182,8.63v0.397h0.099
			c0.698-0.604,0.89-1.671,1.289-2.579c1.696-3.853,3.426-7.708,5.059-11.903c7.402-19.024,7.852-48.287-0.298-66.953v-0.099
			c2.022,0.591,4.035,3.7,5.257,5.257c5.076,6.469,8.648,13.919,10.415,23.806c0.033,0.066,0.066,0.132,0.099,0.198h0.298
			c-0.655-4.628-0.106-9.764-0.992-13.986c-2.527-12.039-7.057-21.486-13.292-29.757c-2.069-2.744-4.661-5.896-7.34-8.034
			c-1.025-0.86-2.05-1.719-3.075-2.579c3.892,0.255,9.363,3.153,12.2,4.86c9.148,5.503,15.134,12.656,19.54,22.913
			c1.404,3.268,3.334,7.153,3.571,11.308c0.099,0.066,0.198,0.132,0.298,0.198C710.712,624.76,710.58,622.379,710.448,619.999z
			 M482.607,570.304c-0.066,0.066-0.132,0.132-0.198,0.198c-1.72-0.958-6.76-7.139-6.547-9.324
			C479.231,561.36,483.185,566.327,482.607,570.304z M643.395,532.116c-0.066,0.066-0.132,0.132-0.198,0.198h-0.099
			c0.992-1.785,1.984-3.571,2.976-5.356c2.718-6.223,5.931-15.106,5.753-23.806c0.066-0.033,0.132-0.066,0.198-0.099
			c0.727,1.301,0.472,4.478,0.198,6.15c-0.634,3.873-0.768,7.123-1.785,10.415c-0.562,1.256-1.124,2.513-1.686,3.769v0.099
			c0.066,0.033,0.132,0.066,0.198,0.099c6.347-6.035,10.226-15.024,13.192-24.401c4.926-15.57,8.34-33.288,8.729-53.364h-0.099
			c-0.595,1.256-1.19,2.513-1.785,3.769c-1.587,2.81-3.174,5.621-4.761,8.431c-1.963,3.103-4.613,6.561-7.439,8.828
			c-0.926,0.727-1.852,1.455-2.777,2.182l0.198,0.198c2.153-0.949,4.703-1.496,6.745-2.381c0.033,0.066,0.066,0.132,0.099,0.198
			c-1.796,3.137-4.894,6.231-7.935,8.134c-1.157,0.595-2.315,1.19-3.472,1.785v0.099c3.671,0.817,5.846-0.968,8.233-1.587v0.099
			c-3.382,5.282-10.098,11.771-18.747,11.605c-0.033,0.066-0.066,0.132-0.099,0.198c0.033,0.066,0.066,0.132,0.099,0.198
			c5.655,1.477,9.982-1.014,13.391-2.877c0.033,0.066,0.066,0.132,0.099,0.198c-2.221,4.803-9.084,10.64-14.184,12.597
			c1.102,1.525,8.143-2.521,8.828-2.877h0.099c-0.794,2.59-8.404,8.804-11.308,9.423c-0.132,0.165-0.265,0.331-0.397,0.496v0.099
			c3.481,0.424,7.616-3.466,9.721-5.059c-0.61,2.146-3.5,4.615-5.158,5.852c-0.765,0.57-2.301,1.067-2.678,1.984
			c3.969-0.153,5.331-3.311,8.034-4.166c-4.461,8.734-16.58,16.626-30.154,16.366v-0.198c6.092-0.895,10.352-4.521,13.49-8.431
			c0.579-0.721,1.477-1.301,1.785-2.281c-6.069,1.361-8.347-1.186-6.844-7.538c1.43-6.045,3.436-11.524,6.249-16.267
			c5.735-9.671,12.466-17.802,19.144-26.385c3.471-3.868,6.944-7.737,10.415-11.605c3.608-4.5,9.533-11.568,14.581-14.383h0.893
			c1.804,1.799,1.488,5.831,1.488,9.423c-0.001,7.484-0.366,14.475-1.587,21.128c-4.235,23.073-8.148,42.68-19.838,58.125
			C652.807,524.365,647.087,530.591,643.395,532.116z M479.632,658.584c2.622-2.021,6.238-10.552,3.075-14.779
			c-1.566-2.092-4.689-2.636-7.34-3.67c-4.611-1.799-9.469-4.414-15.672-4.265c-1.89,0.71-3.577,0.356-4.96,1.389
			c-6.846,5.115,0.565,9.699,3.075,13.292c2.32,3.32,3.788,8.893,9.721,8.134C472.078,658.1,476.02,661.367,479.632,658.584z
			 M566.82,587.266c-2.579,0.264-5.158,0.529-7.737,0.794c-5.114,0.796-12.994-0.186-17.557-0.893
			c-4.277-0.662-8.825,0.002-13.093,0c-0.033,0.066-0.066,0.132-0.099,0.198c0.033,0.066,0.066,0.132,0.099,0.198
			c6.936,1.537,12.206,4.409,19.739,5.654c3.396,0.561,7.944,0.313,11.109-0.198c12.07-1.948,21.381-4.81,31.642-8.034
			c4.099-1.389,8.2-2.777,12.3-4.166c1.436-0.553,4.027-0.662,5.059-1.686h-0.397c-5.786,1.124-11.573,2.248-17.358,3.372
			C582.813,584.4,574.903,585.68,566.82,587.266z M540.336,523.982c1.418-1.758,4.612-5.897,6.547-6.844
			c0.496-0.562,0.992-1.124,1.488-1.686h-0.298c-3.075,2.579-6.15,5.158-9.225,7.737c-7.817,6.286-16.798,16.718-20.136,27.377
			c-1.081,3.453-2.274,8.703-1.488,13.49c0.465,2.83,1.26,6.476,0.893,9.026h0.099c0.76-1.19,1.521-2.381,2.281-3.571
			c1.984-2.38,3.968-4.761,5.951-7.142c0.991-1.227,4.224-3.245,4.662-4.563c-1.798,0.388-5.105,1.801-7.042,0.496
			c-3.612-2.433-0.543-9.875,0.694-12.696C528.497,537.09,534.867,530.764,540.336,523.982z M503.338,612.559l0.198,0.198
			c1.752-2.81,3.505-5.621,5.257-8.431c4.841-7.261,9.855-15.126,16.763-20.334c3.142-2.369,6.708-4.473,10.911-5.753
			c5.219-1.589,10.648-1.446,14.482-4.166c4.4-3.121,6.838-8.381,11.506-11.208c5.851-3.544,23.297-2.196,29.36,0.496
			c0.033-0.066,0.066-0.132,0.099-0.198c-1.308-1.277-5.843-2.176-7.836-2.877c-7.646-2.689-16.209-4.542-26.682-4.364
			c-2.876,0.364-5.753,0.727-8.63,1.091c-5.325,1.338-10.062,3.022-14.184,5.555c-12.935,7.947-19.861,22.031-26.087,36.7
			C506.777,603.698,505.057,608.129,503.338,612.559z M532.996,567.626c4.745-1.244,9.643-2.676,13.986-4.364
			c1.091-0.331,2.182-0.661,3.273-0.992h1.389c0.217,0.962-0.4,1.891-0.694,2.678c-1.278,3.417-2.572,7.375-6.249,8.332
			c-4.585,1.194-11.336-2.37-11.804-5.455C532.93,567.758,532.963,567.692,532.996,567.626z M501.354,626.347
			c1.473-0.475,3.299-4.364,4.166-5.753c3.174-5.19,6.349-10.382,9.522-15.573c0.549-0.97,3.832-5.362,3.67-6.051
			c-3.207,4.298-6.415,8.597-9.621,12.895c-3.09,4.391-5.335,9.242-7.737,14.383V626.347z"/>
	</g>
</g>
<g>
	<g>
		<path style="fill-rule:evenodd;clip-rule:evenodd;" d="M345.786,80.862c-1.086-0.822-3.3-0.637-4.761-0.198
			c-3.931,1.179-7.722,2.674-11.407,4.067c-10.753,4.065-20.908,8.652-30.749,13.688c-4.199,2.314-8.398,4.629-12.597,6.943
			c-1.054-0.958-1.394-3.388-1.984-4.761c-1.502-3.498-3.249-7.032-5.158-10.217c-7.496-12.507-18.3-24.19-33.824-28.567
			c0.33,0.685,5.814,2.663,6.844,3.273c3.893,2.305,8.041,5.279,10.812,8.729c4.323,5.381,7.254,11.041,9.225,18.945
			c0.778,3.119,0.297,6.976,1.19,10.316c-0.066,0.066-0.132,0.132-0.198,0.198c-14.029-23.021-36.712-36.808-65.267-45.429
			c-9.464-2.857-20.671-5.262-32.733-5.059c-0.033,0.066-0.066,0.132-0.099,0.198c18.132,2.403,29.232,7.263,40.767,15.97
			c3.113,2.35,6.29,4.912,8.729,7.935c3.221,3.993,8.289,8.293,10.316,13.292c0.066,0.099,0.132,0.198,0.198,0.298
			c-1.719-1.355-3.439-2.711-5.158-4.067c-3.24-2.116-6.481-4.232-9.721-6.348c-8.832-5.485-18.955-9.188-30.154-12.3
			c-4.182-1.162-9.042-2.479-13.688-2.976c3.67,3.174,7.34,6.348,11.01,9.522c2.711,2.645,5.423,5.29,8.134,7.935
			c2.272,1.834,4.515,4.177,6.348,6.447c2.645,2.843,5.29,5.687,7.935,8.53c3.104,3.89,6.34,7.701,9.225,11.804
			c1.422,2.149,2.844,4.298,4.265,6.447c1.554,0.43,3.108,0.86,4.662,1.289c3.031,1.069,6.081,2.404,8.729,3.968
			c8.119,4.792,13.288,11.873,18.251,19.838c1.196,1.92,2.679,3.869,3.571,6.051h0.298c-1.992-9.054-4.099-18.952-8.53-25.789
			v-0.099c1.693,0.801,6.787,9.4,7.241,11.704c0.066,0.033,0.132,0.066,0.198,0.099h0.099c-0.355-4.378-2.511-10.135-3.968-13.887
			c-3.807-9.803-7.623-18.49-13.192-26.385c-2.017-2.579-4.034-5.158-6.051-7.737c5.004,3.23,9.431,7.943,13.589,12.101
			c11.653,11.652,21.856,25.542,28.964,41.66c2.326,5.275,4.518,10.756,6.745,16.366c0.76,2.05,1.521,4.1,2.281,6.15
			c0.165,0.066,0.331,0.132,0.496,0.198c-1.088-5.549-0.653-11.773-1.587-17.656c-0.992-12.034-1.984-24.071-2.976-36.105h0.198
			c3.837,11.835,10.909,20.917,15.672,31.741c2.778,6.313,4.238,13.943,6.051,21.227c1.897,7.623,2.91,25.357,7.737,29.162v0.496
			c-4.149,4.445-6.737,10.727-12.498,13.688l-0.198-0.198c1-2.859,0.605-6.182,1.19-9.721c0.477-2.88,0.235-6.944-0.198-9.621
			c-0.198-2.149-0.397-4.298-0.595-6.447c-1.161-6.123-2.101-12.103-3.769-17.557c-0.695-2.273-2.165-9.133-3.372-10.514
			l-0.198,0.198c1.181,3.446,0.755,7.659,1.389,11.605c0.298,4.033,0.595,8.068,0.893,12.101v3.67
			c0.652,4.281,0.31,11.142-0.298,15.176c-0.784,5.205,0.071,11.729-4.364,13.192c-0.693,1.238-0.248,4.066-0.099,5.555
			c0.452,4.521,1.622,8.818,2.777,12.696c3.275,10.994,7.271,20.667,12.597,29.559c1.951,3.008,3.902,6.018,5.852,9.026
			c0.992,1.322,1.984,2.645,2.976,3.968c-1.089,0.775-5.525-0.084-7.241,0.198c-3.978,0.654-8.185,0.44-11.407,1.785
			c-8.515,3.555,0.102,11.774,4.96,13.192c0.066,0.099,0.132,0.198,0.198,0.298c-2.098,1.455-10.065,1.588-13.292,0.992
			c-10.848-2.005-17.61-6.593-24.798-12.101c-11.589-8.882-20.287-20.656-35.907-25.492c-3.716-1.151-12.232-2.698-17.557-1.785
			c-2.876,0.364-5.753,0.727-8.63,1.091c-3.947,0.849-7.802,1.784-11.308,3.174c-1.917,0.826-3.836,1.653-5.753,2.48
			c1.944-2.289,5.507-3.766,8.134-5.356c8.116-4.914,21.717-10.818,35.411-8.233c2.916,0.551,5.638,0.87,7.935,1.984h0.298
			c-1.236-1.527-4.19-2.201-6.15-2.976c-6.977-2.757-16.786-4.273-26.682-3.372c-18.884,1.719-32.824,9.048-44.636,17.953
			c-3.201,2.414-5.867,5.896-9.026,8.134c1.741-2.71,4.27-4.777,6.249-7.241c7.998-9.955,19.56-17.029,32.435-22.119
			c4.264-1.686,13.145-4.44,18.747-3.968v-0.298c-34.285-8.054-57.837,14.296-70.028,34.617c-2.982,4.971-5.329,10.146-7.638,15.97
			c-0.661,1.951-1.323,3.902-1.984,5.852c-0.066,0.033-0.132,0.066-0.198,0.099c3.858-25.84,15.143-47.317,31.939-60.407
			c4.846-3.776,9.72-7.148,15.771-9.82c1.509-0.666,3.09-1.592,4.96-1.885c-0.234-0.328-6.462,0.992-7.538,1.289
			c-7.564,2.091-14.198,4.865-20.235,8.431c-24.159,14.271-39.318,34.531-43.644,68.739c-0.576-1.568,0.324-5.116,0.595-6.745
			c0.936-5.632,1.272-11.013,2.381-16.069c3.709-16.905,8.981-31.131,17.457-43.148c2.603-3.69,5.633-6.949,8.431-10.415
			c1.289-1.256,2.579-2.513,3.868-3.769v-0.099c-1.157,0.826-2.315,1.653-3.472,2.48c-4.064,2.857-7.935,5.787-11.804,8.828
			c-1.488,1.322-2.976,2.645-4.464,3.968c7.008-11.236,19.176-21.737,31.84-27.277c3.008-1.157,6.018-2.315,9.026-3.472
			c1.256-0.331,2.513-0.661,3.769-0.992c0.066-0.033,0.132-0.066,0.198-0.099c-1.269-0.427-5.875,0.772-7.241,1.091
			c-2.81,0.529-5.621,1.058-8.431,1.587c-3.008,0.727-6.018,1.455-9.026,2.182c0.661-0.655,1.74-0.804,2.678-1.19
			c3.148-1.295,6.26-2.567,9.621-3.868c12.397-4.8,33.11-9.216,48.107-3.67c-0.502-1.193-6.743-4.653-8.233-5.555
			c-5.428-3.286-11.705-5.772-18.747-7.439c-2.446-0.364-4.894-0.727-7.34-1.091c-2.703-0.516-9.205-1.437-11.903-0.694
			c-0.033-0.066-0.066-0.132-0.099-0.198c11.101-1.601,21.581-2.8,32.237-4.96c5.471-1.109,11.253-1.588,17.854-1.587
			c2.248,0.066,4.497,0.132,6.745,0.198c4.095,0.684,8.067,0.938,11.804,1.885c3.433,0.87,6.952,2.252,10.217,3.075v-0.099
			c-1.058-0.727-2.116-1.455-3.174-2.182c-1.355-1.124-2.711-2.248-4.067-3.372c-6.468-5.195-10.792-12.714-13.192-22.02
			c-0.546-2.118-1.988-8.28-1.289-10.713l-0.198-0.198c-0.43,1.322-0.86,2.645-1.289,3.968c-2.197,7.068-1.991,14.224,0.694,20.532
			v0.099c-2.193-0.534-4.229-2.972-5.852-4.265c-4.403-3.508-7.826-9.013-10.117-14.581c-0.727-2.314-1.455-4.629-2.182-6.943
			v-0.099h0.099c1.025,1.851,2.05,3.703,3.075,5.555c1.124,1.455,2.248,2.91,3.372,4.364c0.694,0.727,1.389,1.455,2.083,2.182
			c0.165,0.132,0.331,0.264,0.496,0.397h0.099c-0.27-1.048-1.172-1.57-1.686-2.381c-0.628-1.289-1.256-2.579-1.885-3.868
			c-1.065-2.595-1.762-5.6-2.381-8.53c-0.397-2.479-0.794-4.96-1.19-7.439c-0.595-1.289-1.19-2.579-1.785-3.868
			c-0.424-0.601-1.084-0.848-1.289-1.686c3.115,0.561,9.068,4.932,10.018,7.538c0.099,0.066,0.198,0.132,0.298,0.198h0.099
			c-1.131-6.688-10.07-16.758-15.672-18.945v-0.298c2.931,0.388,5.481,1.792,7.539,3.174c0.76,0.595,1.521,1.19,2.281,1.785
			c0.397,0.397,0.794,0.794,1.19,1.19c0.033-0.033,0.066-0.066,0.099-0.099c-2.233-4.032-5.976-7.126-8.729-10.713
			c-4.144-5.398-8.414-10.786-12.498-16.168c-2.613-3.444-7.147-9.152-11.208-10.911c-3.938,0.144-3.259,7.041-3.868,10.713
			c-0.492,2.961-0.586,7.708-0.099,10.812c0.559,3.56,0.089,6.82,0.694,10.117c0.993,5.41,2.18,10.321,3.372,15.077
			c0.066,0.033,0.132,0.066,0.198,0.099h0.099c-0.268-2.182-0.792-4.633-1.19-7.042c-1.816-10.998,1.918-22.663,5.356-29.261
			l0.298-0.099c0.033,0.066,0.066,0.132,0.099,0.198c-2.634,7.555-1.107,23.952,0.694,30.947h0.298
			c-0.842-5.15-0.549-10.798,1.289-14.68c0.099-0.033,0.198-0.066,0.298-0.099c-0.112,2.225-1.049,4.709-0.595,7.439
			c0.48,2.887,0.597,5.654,1.389,8.233c0.661,1.752,1.323,3.505,1.984,5.257c0.066,0.033,0.132,0.066,0.198,0.099
			c0.066-0.066,0.132-0.132,0.198-0.198c-1.741-3.882-0.377-9.967,0.694-13.292c0.066-0.033,0.132-0.066,0.198-0.099
			c-0.099,1.091-0.198,2.182-0.298,3.273c0.099,1.851,0.198,3.703,0.298,5.555c1.321,7.291,3.715,12.254,7.439,16.962
			c0.736,0.93,1.582,2.238,2.678,2.777c0.231,0.298,0.463,0.595,0.694,0.893c-4.47-0.941-13.996-9.546-15.573-13.391
			c-0.132-0.033-0.265-0.066-0.397-0.099c2.805,8.093,8.417,17.31,14.978,21.623c0.033,0.099,0.066,0.198,0.099,0.298
			c-1.432,0.132-3.971-1.924-5.158-2.678c-3.594-2.283-11.103-7.755-12.696-11.605c-0.099-0.066-0.198-0.132-0.298-0.198h-0.099
			c1.028,6.661,9.122,19.757,14.581,21.623c0.066,0.132,0.132,0.265,0.198,0.397c-2.43-0.258-4.229-1.792-6.348-2.281
			c0.803,3.192,6.46,7.915,9.82,8.63c0.066,0.099,0.132,0.198,0.198,0.298c-4.151,0.124-11.79-5.096-14.482-7.241
			c-9.889-7.882-13.991-23.397-17.16-37.891c-0.952-4.356-0.832-9.031-1.587-13.688v-8.828c0.099-1.851,0.198-3.703,0.298-5.555
			c0.8-4.698,1.348-9.267,2.579-13.292c0.762-2.491,1.7-6.561,3.769-7.737c1.795-1.02,4.257,1.297,5.257,1.984
			c3.346,2.297,6.218,4.938,9.324,7.439c1.091,1.091,2.182,2.182,3.273,3.273c3.409,2.747,6.577,6.309,9.324,9.721
			c8.583,10.661,16.302,19.404,22.119,33.13c1.64,3.87,2.653,8.019,3.968,12.399c0.565,1.881,1.474,3.861,1.488,6.15
			c0.033,0.033,0.066,0.066,0.099,0.099h0.298c1.98-6.59,0.851-15.155-1.785-20.136v-0.099c1.281,0.627,2.099,2.404,2.877,3.571
			c1.699,2.55,3.689,5.829,6.051,7.737c1.552,1.254,3.088,2.537,4.86,3.571c2.248,1.058,4.497,2.116,6.745,3.174
			c4.398,2.778,10.159,9.545,12.101,14.68c0.066,0.033,0.132,0.066,0.198,0.099h0.099c-0.951-11.204-8.561-20.565-14.779-26.781
			c-1.623-1.623-5.584-5.781-7.836-6.348v0.099c1.014,1.368,1.983,3.114,2.579,4.86c-1.827-1.284-2.881-4.397-4.166-6.249
			c-3.207-4.463-6.415-8.928-9.621-13.391c-3.881-5.052-8.639-9.379-12.597-14.283l-8.431-8.431
			c-4.919-3.972-9.117-8.896-14.085-12.895c-4.653-3.745-8.856-7.98-13.787-11.506c-1.84-1.315-3.661-3.294-6.547-3.472
			c-0.97,0.496-1.764,0.769-2.381,1.587c-1.906,2.528-3.871,9.663-4.067,13.688c-1.012,0.633-2.492,0.699-3.769,1.091
			c-2.645,0.959-5.29,1.918-7.935,2.877c-7.363,3.159-13.555,7.418-19.441,12.002c-1.99,1.55-6.896,5.423-7.538,7.935h0.099
			c1.686-1.422,3.373-2.844,5.059-4.265c8.079-5.726,18.305-10.08,32.038-9.721c-0.066,4.695-0.132,9.391-0.198,14.085
			c0,6.281,1.282,11.96,1.389,17.557c-1.984,0.364-3.968,0.727-5.951,1.091c-3.981,0.967-7.981,1.773-11.605,3.174
			c-9.626,3.723-17.753,8.374-25.393,13.986c-2.726,2.002-5.034,4.546-7.638,6.646c-2.289,1.847-7.92,7.074-9.125,9.621
			c-0.298,0.331-0.595,0.661-0.893,0.992c1.358-0.435,2.514-2.415,3.472-3.372c2.304-2.304,4.959-4.548,7.638-6.447
			c12.208-8.655,31.396-17.404,52.075-11.903c0.744,1.122,1.158,3.374,1.488,4.761v0.099c-0.981,0.536-2.504,0.423-3.769,0.694
			c-2.248,0.562-4.497,1.124-6.745,1.686c-6.249,1.942-11.826,4.946-16.763,8.233c-1.552,1.033-5.807,3.545-6.447,5.158h0.099
			c1.091-0.76,2.182-1.521,3.273-2.281c3.764-2.292,8.104-3.842,12.498-5.455h0.099c-0.432,1.093-5.988,4.342-7.241,5.257
			c-6.242,4.559-11.901,9.684-17.854,14.482c-1.653,1.62-3.307,3.24-4.96,4.86c-4.395,3.541-8.395,8.266-11.903,12.696
			c-13.633,17.218-25.326,35.543-25.095,66.656c0.033,0.033,0.066,0.066,0.099,0.099h0.099c0.298-2.678,0.595-5.357,0.893-8.034
			c0.949-4.886,2.001-9.608,3.67-13.887c8.574-21.976,26.019-40.359,49.298-47.512c4.497-1.382,9.415-1.772,14.581-2.678
			c-0.551,0.812-2.472,1.13-3.372,1.587c-2.612,1.455-5.224,2.91-7.836,4.364c-5.864,3.678-11.189,8.114-15.97,12.895
			c-1.19,1.157-2.381,2.315-3.571,3.472c-2.711,3.306-5.423,6.613-8.134,9.919c-7.742,10.91-13.438,23.363-17.259,38.287
			c-1.654,6.459-2.134,13.383-3.372,20.433c-0.198,3.306-0.397,6.613-0.595,9.919v8.828c0.894-0.596,0.384-4.096,0.595-5.356
			c0.595-3.934,1.19-7.869,1.785-11.804c2.062-8.391,4.536-16.204,8.63-22.615c1.488-2.149,2.976-4.298,4.464-6.447
			c0.992-1.157,1.984-2.315,2.976-3.472c1.256-1.223,2.513-2.447,3.769-3.67h0.099c-0.562,1.157-1.124,2.315-1.686,3.472
			c-1.025,2.777-2.05,5.555-3.075,8.332c-2.122,6.739-3.062,13.816-4.364,21.624c-0.099,2.248-0.198,4.497-0.298,6.745
			c-0.388,2.347-0.261,5.779,0.099,8.034c0.132,2.083,0.265,4.166,0.397,6.249c0.967,5.337,1.491,10.432,3.075,15.077
			c8.726,25.593,25.643,44.301,49.694,54.555c8.263,3.522,19.37,7.29,30.947,7.142v-0.099c-2.711-0.397-5.423-0.794-8.134-1.19
			c-4.82-1.185-9.452-2.465-13.688-4.265c-20.001-8.5-33.633-22.923-38.783-46.421c-1.444-6.59-1.539-16.313-0.198-23.111
			c0.298-1.653,0.595-3.307,0.893-4.959v-0.198h0.198c2.27,10.494,6.566,19.868,11.407,27.972
			c13.855,23.193,30.367,37.834,58.82,46.52c6.247,1.907,12.729,2.308,19.838,3.571c4.612,0.819,13.929,1.627,19.144,0.794
			c1.554-0.033,3.108-0.066,4.662-0.099c4.496-0.496,8.994-0.992,13.49-1.488c13.352-2.815,24.551-6.465,34.419-12.498
			c5.222-3.192,10.818-6.863,14.383-11.704c-0.827,0.76-1.653,1.521-2.48,2.281c-1.951,1.488-3.902,2.976-5.852,4.464
			c-5.509,3.669-11.86,6.216-18.945,8.332c-10.228,3.055-24.682,1.903-33.923-0.992c-21.295-6.67-33.289-23.97-36.601-48.603h0.099
			c1.62,1.785,3.24,3.571,4.86,5.356c5.594,4.516,10.613,8.301,17.953,11.308c1.488,0.595,2.976,1.19,4.464,1.785v-0.099
			c-1.818-1.256-3.637-2.513-5.456-3.769c-5.217-4.179-10.05-13.257-7.34-23.012c0.733-2.638,2.25-4.591,3.174-6.844
			c0.132-0.099,0.265-0.198,0.397-0.298c0.548,1.419,0.263,4.799,0.794,6.547c1.488,4.903,8.159,16.177,12.3,17.755
			c-0.496-1.058-0.992-2.116-1.488-3.174c-0.854-2.165-1.232-4.619-1.686-7.142c-0.654-3.631,0.232-7.643,1.19-10.117
			c4.155-10.723,15.538-15.111,29.46-10.911c2.116,0.694,4.232,1.389,6.348,2.083c1.455,1.521,2.91,3.042,4.364,4.563
			c3.398,2.726,6.817,5.262,10.713,7.538c3.496,2.043,11.5,5.453,17.259,4.166c7.341-1.641,13.037-6.399,18.251-10.316
			c2.445-1.837,5.277-3.451,7.142-5.852c1.742-2.243,2.666-5.803,0.893-8.729c-3.497-5.77-8.512-10.575-11.109-17.358
			c-1.061-2.771-1.229-5.928-1.785-9.225c-1.007-5.972,1.323-10.959,2.182-15.077c0.374-1.79-1.03-4.399-0.595-6.943
			c0.991-5.804,1.835-10.442,3.769-15.077c1.488-2.942,2.976-5.886,4.464-8.828c0.837-1.34,2.48-2.733,2.678-4.563
			c-0.645-0.808-1.663-0.836-2.579-1.389c-1.607-0.969-2.732-3.041-3.472-4.86c-4.65-11.44,1.238-24.483,6.249-31.543
			c1.361-1.918,6.272-6.625,6.745-8.431l-0.595-0.595c-1.595-0.621-3.713,0.831-4.662,1.389c-2.669,1.567-9.697,6.798-10.316,9.82
			h0.099c2.413-1.554,4.828-3.108,7.241-4.662c0.033,0.033,0.066,0.066,0.099,0.099c-1.64,2.07-3.695,3.71-5.158,6.051
			c-0.954,1.526-1.591,4.445-2.678,5.753c-0.894-1.032-3.003-11.509-3.075-13.688c2.777-4.562,5.555-9.126,8.332-13.688
			c5.269-8.373,10.968-16.546,16.466-24.698c2.44-3.617,4.862-7.19,7.34-10.713c1.018-1.447,1.812-3.462,3.174-4.563l0.099,0.099
			c-4.199,9.025-8.398,18.054-12.597,27.079c-1.719,3.604-3.439,7.208-5.158,10.812c-1.686,2.942-3.373,5.886-5.059,8.828
			c-1.157,1.587-2.315,3.174-3.472,4.761c-0.165,0.198-0.331,0.397-0.496,0.595c1.93-0.6,7.024-7.804,8.431-9.721
			c4.735-6.449,8.535-13.782,12.2-21.326c2.479-5.058,4.96-10.118,7.439-15.176c1.656-3.764,3.609-7.457,4.86-11.506
			C347.361,84.43,347.017,81.794,345.786,80.862z M294.802,216.158c0.099-1.752,0.198-3.505,0.298-5.257
			c0.814-0.346,2.062-0.169,2.877-0.694c1.624-1.047,2.117-3.133,3.273-4.662c0.529-0.43,1.058-0.86,1.587-1.289h0.397
			C302.594,207.805,297.638,215.231,294.802,216.158z M305.812,209.413c-0.695,2.971-0.865,5.916-1.389,9.125
			c0.033,1.455,0.066,2.91,0.099,4.364c-1.009,4.284-3.269,8.028-3.174,13.787h-0.099c-1.431-1.511-3.904-14.604-2.877-18.549
			c1.322-1.686,2.645-3.373,3.968-5.059c1.951-4.232,3.902-8.465,5.852-12.696C307.399,203.395,306.605,206.405,305.812,209.413z
			 M252.15,253.95c-2.712-3.556-5.282-7.347-7.638-11.209c-0.648-1.063-2.032-4.594-2.976-5.059c0.76,1.752,1.521,3.505,2.281,5.257
			c5.251,12.266,13.55,20.247,23.806,27.476c3.404,2.399,7.232,5.748,11.407,7.142c-3.372-2.314-6.745-4.629-10.117-6.943
			C262.676,265.898,256.889,260.164,252.15,253.95z M246.199,199.197c-1.521-1.256-3.042-2.513-4.563-3.769
			c-5.653-3.609-13.654-5.081-20.532-7.241c-3.438-1.223-6.878-2.447-10.316-3.67c-1.422-0.595-2.844-1.19-4.265-1.785
			c0.375,0.957,1.988,1.587,2.777,2.182c2.48,2.083,4.96,4.166,7.439,6.249c8.366,8.182,14.471,22.313,27.079,25.789
			c0.099,0.132,0.198,0.265,0.298,0.397c-4.793-1.308-10.053-1.952-14.283-3.868l-0.198,0.198c2.399,4.197,7.495,7.011,12.796,8.332
			c2.116,0.397,4.232,0.794,6.348,1.19c2.993,0.913,5.851,2.512,8.332,4.067c9.79,6.135,19.31,15.497,26.385,24.401
			c3.108,3.901,6.216,7.803,9.324,11.704l0.298-0.298c0.574-1.509-0.676-4.232-1.091-5.456c-1.634-4.823-3.218-9.21-5.059-13.589
			c-3.628-8.63-7.921-16.784-12.696-24.401c-2.579-4.033-5.158-8.068-7.737-12.101c-0.596-1.949-0.076-3.697-0.794-5.356
			c-1.212-2.802-3.524-4.528-4.563-7.836c-1.365-4.346-2.831-14.391-1.885-20.235c0.202-1.248,1.012-8.503,0.992-8.53
			c-2.808,5.761-6.775,18.538-4.86,27.377h-0.099c-1.248-1.17-1.43-4.685-1.984-6.447c-1.442-4.587-4.467-11.391-4.364-16.862
			c-0.066-0.033-0.132-0.066-0.198-0.099c-0.955,1.391-0.641,9.387-0.198,11.804c1.333,7.279,3.091,12.689,6.348,17.854
			c1.223,1.686,2.447,3.373,3.67,5.059c0.661,0.76,1.323,1.521,1.984,2.281c0.694,0.727,1.389,1.455,2.083,2.182
			c-1.19-0.562-2.381-1.124-3.571-1.686C254.231,204.892,250.175,202.204,246.199,199.197z M260.184,218.34
			c-17.103-0.681-25.727-10.17-33.526-20.235c-1.488-1.587-2.976-3.174-4.464-4.761c-0.68-0.548-1.681-1.076-2.083-1.885
			c4.458,1.773,9.168,3.599,13.887,5.456c1.62,0.595,3.24,1.19,4.86,1.785c0.767,1.433,0.483,4.063,0.992,5.555
			c1.54,4.512,8.499,11.391,12.994,5.059h0.198c2.248,2.876,4.497,5.753,6.745,8.63L260.184,218.34z M270.004,262.877
			c-5.753-5.758-10.924-12.302-15.672-19.045c-1.719-2.579-3.439-5.158-5.158-7.737c-0.618-0.992-1.159-3.028-2.281-3.472
			c0.991,3.627,3.608,7.384,5.455,10.415c5.212,8.551,11.617,15.899,19.243,22.02c2.447,1.964,4.635,4.466,7.439,6.051
			C276.022,268.365,273.013,265.621,270.004,262.877z"/>
	</g>
</g>
</svg>
